<?xml version="1.0" standalone="no"?>
<!DOCTYPE svg PUBLIC "-//W3C//DTD SVG 1.1//EN" "http://www.w3.org/Graphics/SVG/1.1/DTD/svg11.dtd" >
<svg xmlns="http://www.w3.org/2000/svg">
<metadata>Generated by IcoMoon</metadata>
<defs>
<font id="iconfont" horiz-adv-x="1024">
<font-face units-per-em="1024" ascent="896" descent="-128" />
<missing-glyph horiz-adv-x="1024" />
<glyph unicode="&#x20;" horiz-adv-x="20" d="" />
<glyph unicode="&#x41;" glyph-name="A" horiz-adv-x="1064" d="M160.286 136.202c-95.438 0.094-155.189-103.159-107.552-185.857 22.107-38.381 63.013-62.051 107.304-62.094 95.438-0.094 155.19 103.159 107.553 185.857-22.107 38.38-63.013 62.051-107.305 62.094zM160.162 880c-95.438 0-155.086-103.315-107.366-185.966 22.146-38.358 63.075-61.988 107.366-61.988 341.804 0 619.884-278.080 619.884-619.884 0-95.438 103.315-155.086 185.966-107.366 38.358 22.147 61.988 63.075 61.988 107.366 0 478.55-389.286 867.838-867.838 867.838zM160.162 508.070c-95.438 0-155.086-103.315-107.366-185.966 22.146-38.358 63.075-61.988 107.366-61.988 136.683 0 247.954-111.207 247.954-247.955 0-95.438 103.315-155.086 185.967-107.366 38.358 22.147 61.988 63.075 61.988 107.366 0 273.432-222.477 495.907-495.907 495.907z" />
<glyph unicode="&#xe601;" glyph-name="uniE601" d="M512 896c0 0 0 0 0 0-145.333-3.333-266.167-53.167-362.5-149.5s-146.167-217.167-149.5-362.5c0 0 0 0 0 0 3.333-145.333 53.167-266.167 149.5-362.5s217.167-146.167 362.5-149.5c0 0 0 0 0 0 145.333 3.333 266.167 53.167 362.5 149.5s146.167 217.167 149.5 362.5c0 0 0 0 0 0-3.333 145.333-53.167 266.167-149.5 362.5s-217.167 146.167-362.5 149.5zM512-61c0 0 0 0 0 0-125.333 3.333-230 47-314 131s-127.667 188.667-131 314c0 0 0 0 0 0 3.333 125.333 47 230 131 314s188.667 127.667 314 131c0 0 0 0 0 0 125.333-3.333 230-46.667 314-130s127.667-188.333 131-315c0 0 0 0 0 0-3.333-125.333-47-230-131-314s-188.667-127.667-314-131zM320 605c0 0 0-61 0-61s158 0 158 0c0 0 0-410 0-410s72 0 72 0c0 0 0 410 0 410s157 0 157 0c0 0 0 61 0 61s-387 0-387 0z" />
<glyph unicode="&#xe607;" glyph-name="uniE607" d="M874 12c0 0 0 0 0 0s-4-3-4-3c-42.667-43.333-92-76.667-148-100 0 0 0 0 0 0-58.667-24.667-119.167-37-181.5-37s-122.5 12.333-180.5 37c0 0 0 0 0 0-56.667 24-106.333 57.333-149 100s-75.667 91.667-99 147c0 0 0 0 0 0-16 39.333-26.333 75.333-31 108 0 0 0 0 0 0-1.333 10.667 7.833 17.5 27.5 20.5s30.5-0.833 32.5-11.5c0 0 0 0 0 0s0-0.667 0-2c0 0 0 0 0 0 6.667-34.667 15.333-65 26-91 0 0 0 0 0 0 19.333-47.333 48.333-90.333 87-129 0 0 0 0 0 0 37.333-37.333 80.333-66.333 129-87 0 0 0 0 0 0 50.667-21.333 103.333-32 158-32s107.333 10.667 158 32c0 0 0 0 0 0 48.667 20.667 91.333 49.667 128 87 0 0 0 0 0 0s4 3 4 3c4 4 8.5 5.333 13.5 4s11.5-5.667 19.5-13c0 0 0 0 0 0 14-14 17.333-25 10-33zM604 363c0 0 0 0 0 0s-38-37-38-37c0 0 36-36 36-36 8-8 6.667-17.333-4-28 0 0 0 0 0 0-6-6.667-12-10-18-10 0 0 0 0 0 0-4 0-7.667 2-11 6 0 0 0 0 0 0s-35 35-35 35c0 0-38-38-38-38-2-2-5-3-9-3 0 0 0 0 0 0-5.333 0-11 3-17 9 0 0 0 0 0 0s-1 1-1 1c-7.333 6-11 11.667-11 17 0 0 0 0 0 0 0 2.667 1.667 6 5 10 0 0 0 0 0 0s38 37 38 37c0 0-38 37-38 37-6 6.667-3.333 15.333 8 26 0 0 0 0 0 0 6.667 6.667 12.667 10 18 10 0 0 0 0 0 0 2 0 4.333-0.667 7-2 0 0 0 0 0 0s37-38 37-38c0 0 37 37 37 37 7.333 6.667 16.667 4.333 28-7 0 0 0 0 0 0 10-10.667 12-19.333 6-26zM873 331c0 0 0 0 0 0 0-45.333-8.667-88.667-26-130 0 0 0 0 0 0-17.333-40-41.333-75.333-72-106s-66.333-54.833-107-72.5c-40.667-17.667-84-26.5-130-26.5s-89.5 8.833-130.5 26.5c-41 17.667-76.833 41.833-107.5 72.5s-54.333 66-71 106c0 0 0 0 0 0-5.333 12-8 19.333-8 22 0 0 0 0 0 0s-1 0-1 0c-3.333 10.667 4.667 19.167 24 25.5s31 4.167 35-6.5c0 0 0 0 0 0 14-38 32.333-70 55-96 0 0 0 0 0 0s1 0 1 0c0 0 0 195 0 195 1.333 52 20.667 96.333 58 133 0 0 0 0 0 0 40 39.333 88.167 59 144.5 59s104.333-19.667 144-59c39.667-39.333 59.5-87 59.5-143s-20-103.667-60-143c-40-39.333-87.667-59-143-59 0 0 0 0 0 0-22 0-43.333 3-64 9 0 0 0 0 0 0-10.667 4-13.167 15.667-7.5 35s13.833 27.333 24.5 24c0 0 0 0 0 0s27-5 27-5c7.333-1.333 13-2 17-2 0 0 0 0 0 0 40 0 73.667 13.667 101 41s41 60.5 41 99.5c0 39-13.667 71.833-41 98.5s-61 40-101 40c-40 0-73.667-15.333-101-46 0 0 0 0 0 0-24-27.333-36-57.667-36-91 0 0 0 0 0 0s0-236 0-236c42-25.333 88-38 138-38 0 0 0 0 0 0 36.667 0 72 6.833 106 20.5s63.667 33.333 89 59c25.333 25.667 45 55.333 59 89s21 68.5 21 104.5c0 0 0 0 0 0 0 75.333-26.833 139.833-80.5 193.5s-118.5 80.5-194.5 80.5c-76 0-140.667-26.667-194-80 0 0 0 0 0 0-20-20.667-34.667-37.333-44-50 0 0 0 0 0 0s-1-1-1-1c-2.667-4.667-5-7.833-7-9.5s-6.167-3.333-12.5-5c-6.333-1.667-13.667-1.333-22 1s-15.333 5.667-21 10c-5.667 4.333-8.5 9.5-8.5 15.5 0 0 0 0 0 0s0 388 0 388c0 6 2 11.167 6 15.5s9 6.5 15 6.5c0 0 0 0 0 0s502 0 502 0c11.333 0 17-10.5 17-31.5s-5.667-31.5-17-31.5c0 0 0 0 0 0s-464 0-464 0c0 0 0-276 0-276s1 0 1 0c15.333 16 34.667 32 58 48s44 27.667 62 35c0 0 0 0 0 0 41.333 17.333 85.167 26 131.5 26s89.833-8.667 130.5-26c40.667-17.333 76.333-41.333 107-72s54.667-66 72-106c0 0 0 0 0 0 17.333-42.667 26-86.333 26-131zM855 663c0 0 0 0 0 0 4-3.333 6-6.833 6-10.5s-1.167-7-3.5-10c-2.333-3-5.5-7.167-9.5-12.5 0 0 0 0 0 0-10-10-17.333-15-22-15 0 0 0 0 0 0-3.333 0-6.333 1.333-9 4 0 0 0 0 0 0-40.667 34.667-80.333 60-119 76 0 0 0 0 0 0-48.667 21.333-101 32-157 32 0 0 0 0 0 0-50.667 0-100.667-9.333-150-28 0 0 0 0 0 0-10.667-3.333-19.333 4-26 22 0 0 0 0 0 0-3.333 9.333-4.667 16.667-4 22s3.667 9 9 11c0 0 0 0 0 0 49.333 21.333 106.333 32 171 32 0 0 0 0 0 0 62 0 122-12 180-36 0 0 0 0 0 0 52-22 96.667-51 134-87z" />
<glyph unicode="&#xe621;" glyph-name="uniE621" horiz-adv-x="1025" d="M416 408c0 0 0 0 0 0 28 13.333 49.333 31 64 53s22 48.667 22 80c0 0 0 0 0 0-0.667 59.333-19.333 101.5-56 126.5s-85.667 37.167-147 36.5c0 0 0 0 0 0s-299 0-299 0c0 0 0-643 0-643s308 0 308 0c60-0.667 111.833 13.833 155.5 43.5s66.833 76.833 69.5 141.5c0 0 0 0 0 0 0 40-9.833 74.167-29.5 102.5s-48.833 48.167-87.5 59.5zM128 446c0 0 0 150 0 150s131 0 131 0c25.333 0.667 47.5-4 66.5-14s28.833-30 29.5-60c0 0 0 0 0 0-0.667-26.667-8.833-46-24.5-58s-36.167-18-61.5-18c0 0 0 0 0 0s-141 0-141 0zM277 175c0 0 0 0 0 0s-149 0-149 0c0 0 0 175 0 175s152 0 152 0c30.667 0.667 55-6.167 73-20.5s26.833-37.833 26.5-70.5c-0.333-32.667-10.333-55-30-67s-43.833-17.667-72.5-17zM928 575c0 0 0 65 0 65s-256 0-256 0c0 0 0-65 0-65s256 0 256 0zM801 536c0 0 0 0 0 0-71.333-1.333-128.167-24.667-170.5-70s-63.833-103.333-64.5-174c0 0 0 0 0 0 0.667-73.333 21.667-132 63-176s98.667-66.667 172-68c0 0 0 0 0 0 52-0.667 94.833 9.167 128.5 29.5s59.167 57.5 76.5 111.5c0 0 0 0 0 0s-101 0-101 0c-4.667-14.667-16-25.833-34-33.5s-40-11.5-66-11.5c0 0 0 0 0 0-35.333-0.667-62.5 7.5-81.5 24.5s-29.5 45.5-31.5 85.5c0 0 0 0 0 0s332 0 332 0c4.667 74-11.833 138.833-49.5 194.5s-95.5 84.833-173.5 87.5zM898 349c0 0-206 0-206 0 0 19.333 7.667 39 23 59s42.667 30.667 82 32c0 0 0 0 0 0 30.667 0.667 53.833-6.333 69.5-21s26.167-38 31.5-70c0 0 0 0 0 0z" />
<glyph unicode="&#xe622;" glyph-name="uniE622" d="M939 683c0 0 0 0 0 0s-854 0-854 0c-24-0.667-44-9-60-25s-24.333-36.333-25-61c0 0 0 0 0 0s0-512 0-512c0.667-24 9-44 25-60s36-24.333 60-25c0 0 0 0 0 0s854 0 854 0c24 0.667 44 9 60 25s24.333 36 25 60c0 0 0 0 0 0s0 512 0 512c-0.667 24.667-9 45-25 61s-36 24.333-60 25zM981 597c0 0 0-512 0-512 0-12-4-22-12-30s-18-12-30-12c0 0 0 0 0 0s-854 0-854 0c-12 0-22 4-30 12s-12 18-12 30c0 0 0 0 0 0s0 512 0 512c0 12 4 22.167 12 30.5s18 12.5 30 12.5c0 0 0 0 0 0s854 0 854 0c12 0 22-4.167 30-12.5s12-18.5 12-30.5c0 0 0 0 0 0zM893 502c0 0 0 0 0 0-3.333 5.333-7.833 8.5-13.5 9.5s-11.167 0.167-16.5-2.5c0 0 0 0 0 0s-351-228-351-228c0 0-351 228-351 228-5.333 2.667-10.667 3.5-16 2.5s-9.667-4-13-9c-3.333-5-4.5-10.333-3.5-16s4.167-10.167 9.5-13.5c0 0 0 0 0 0s362-235 362-235c8-4.667 16-4.667 24 0 0 0 0 0 0 0s362 235 362 235c5.333 3.333 8.5 7.833 9.5 13.5s0.167 10.833-2.5 15.5zM288 275c0 0 0 0 0 0s-149-86-149-86c-5.333-3.333-8.667-7.667-10-13s-0.5-10.5 2.5-15.5c3-5 7.167-8.333 12.5-10s10.667-1.167 16 1.5c0 0 0 0 0 0s149 85 149 85c5.333 3.333 8.667 7.667 10 13s0.5 10.667-2.5 16c-3 5.333-7.167 8.833-12.5 10.5s-10.667 1.167-16-1.5zM885 189c0 0 0 0 0 0s-149 86-149 86c-5.333 2.667-10.667 3.167-16 1.5s-9.5-5.167-12.5-10.5c-3-5.333-3.833-10.667-2.5-16s4.667-9.667 10-13c0 0 0 0 0 0s149-85 149-85c5.333-2.667 10.667-3.333 16-2s9.5 4.667 12.5 10c3 5.333 3.833 10.667 2.5 16s-4.667 9.667-10 13z" />
<glyph unicode="&#xe624;" glyph-name="uniE624" d="M767 4c0 0-148 148-148 148 54.667 12.667 105.667 33.667 153 63 0 0 0 0 0 0 18 12.667 29.167 29 33.5 49s0.833 39.167-10.5 57.5c-11.333 18.333-27 29.833-47 34.5s-39.333 1.667-58-9c0 0 0 0 0 0-56-34-115.333-51-178-51s-122 17-178 51c0 0 0 0 0 0-18.667 10.667-38 13.833-58 9.5s-36.333-15.833-49-34.5c0 0 0 0 0 0s0 0 0 0c-10.667-18-13.667-37.333-9-58s16-36.667 34-48c0 0 0 0 0 0s0 0 0 0c47.333-30 98.333-51.333 153-64 0 0 0 0 0 0s-148-148-148-148c-14.667-15.333-22.167-33.167-22.5-53.5s6.833-38.5 21.5-54.5c0 0 0 0 0 0s1-1 1-1c16-15.333 34.333-23 55-23s38.667 7.667 54 23c0 0 0 0 0 0s146 145 146 145c0 0 145-145 145-145 16-14.667 34.167-21.833 54.5-21.5s38 8.167 53 23.5c15 15.333 22.667 33 23 53s-6.5 38-20.5 54c0 0 0 0 0 0zM512 367c0 0 0 0 0 0 74.667 2 136.833 27.833 186.5 77.5s75.5 112.167 77.5 187.5c0 0 0 0 0 0-2 74.667-27.833 136.833-77.5 186.5s-111.833 75.5-186.5 77.5c0 0 0 0 0 0-74.667-2-136.833-27.833-186.5-77.5s-75.5-111.833-77.5-186.5c0 0 0 0 0 0 2-75.333 27.833-137.833 77.5-187.5s111.833-75.5 186.5-77.5zM512 741c0 0 0 0 0 0 30.667-1.333 55.833-12.333 75.5-33s29.5-46.167 29.5-76.5c0-30.333-9.833-55.667-29.5-76s-44.833-31.5-75.5-33.5c0 0 0 0 0 0-30.667 0.667-56.333 11.333-77 32s-31.333 46.667-32 78c0 0 0 0 0 0 0.667 30.667 11.333 56.333 32 77s46.333 31.333 77 32z" />
<glyph unicode="&#xe627;" glyph-name="uniE627" d="M745 306c0 0-88-176-88-176s-90 176-90 176c0 0-130 0-130 0s220-434 220-434c0 0 219 434 219 434s-131 0-131 0zM326 306c0 0 120 239 120 239s121-239 121-239c0 0 178 0 178 0s-299 590-299 590c0 0-298-590-298-590s178 0 178 0z" />
<glyph unicode="&#xe62a;" glyph-name="uniE62A" d="M835 217c0 0-2-2-2-2s0 660 0 660c0 0-88 0-88 0s0-124 0-124c0 0-3 0-3 0-9.333 20.667-21.5 39.667-36.5 57s-32.333 32.667-52 46c-19.667 13.333-41.167 23.667-64.5 31 0 0 0 0 0 0-24.667 7.333-49.667 11-75 11 0 0 0 0 0 0-52 0-98-9.333-138-28s-74.167-45-102.5-79c-28.333-34-49.167-72.333-62.5-115 0 0 0 0 0 0-14.667-46-22-92.667-22-140 0 0 0 0 0 0 0-51.333 6-99.5 18-144.5s31.667-84.5 59-118.5c27.333-34 61.167-60.167 101.5-78.5s89.5-27.5 147.5-27.5c0 0 0 0 0 0 53.333 0 99.833 13.5 139.5 40.5s69.833 62.833 90.5 107.5c0 0 0 0 0 0s2 0 2 0c0 0 0-97 0-97 0-87.333-18-154.167-54-200.5s-95-69.833-177-70.5c0 0 0 0 0 0-24 0-47.333 2.5-70 7.5s-43.833 13.333-63.5 25c-19.667 11.667-36.167 26.5-49.5 44.5s-22.333 40.667-27 68c0 0 0 0 0 0s-90 0-90 0c3.333-38 14-70.833 32-98.5s41-50.333 69-68c28-17.667 58.667-30.5 92-38.5 0 0 0 0 0 0 34-8.667 69.333-13 106-13 0 0 0 0 0 0 58.667 0.667 108.167 8.833 148.5 24.5s73.167 38.333 98.5 68c25.333 29.667 43.833 66 55.5 109s17.5 90.833 17.5 143.5c0 0 0 0 0 0zM511 238c0 0 3 0 3 0-40.667 0-75.833 8-105.5 24s-54.333 37.333-74 64c-19.667 26.667-34.333 57.333-44 92s-14.333 70.333-14 107c0.333 36.667 4.833 72.833 13.5 108.5s22.667 67.5 42 95.5c19.333 28 43.833 50.5 73.5 67.5s65.333 25.5 107 25.5c41.667 0 77-8.833 106-26.5s52.833-40.833 71.5-69.5c18.667-28.667 32.167-60.667 40.5-96s12.5-70.833 12.5-106.5c0-35.667-5-70.833-15-105.5 0 0 0 0 0 0-8.667-33.333-23-63.5-43-90.5s-44.333-48.667-73-65c-28.667-16.333-62.333-24.5-101-24.5 0 0 0 0 0 0z" />
<glyph unicode="&#xe632;" glyph-name="uniE632" d="M83 819c0 0 0 0 0 0 8.667 8.667 19.333 13 32 13 0 0 0 0 0 0s348-13 348-13c3.333-0.667 6-2.667 8-6 0 0 0 0 0 0s479-479 479-479c2.667-4 3.833-8.167 3.5-12.5s-2.167-7.833-5.5-10.5c0 0 0 0 0 0s-372-370-372-370c-3.333-3.333-7.5-5-12.5-5s-9.167 1.667-12.5 5c0 0 0 0 0 0s-476 477-476 477c-2.667 2-4 5-4 9 0 0 0 0 0 0s0 362 0 362c0 11.333 4 21.333 12 30zM61 842c0 0-1-1-1-1-14-14-21.333-31-22-51 0 0 0 0 0 0s0-363 0-363c0.667-12 5-22.333 13-31 0 0 0 0 0 0s479-479 479-479c9.333-8.667 20.667-12.833 34-12.5s24.333 5.167 33 14.5c0 0 0 0 0 0s372 372 372 372c9.333 9.333 14.333 20.5 15 33.5s-3.333 24.5-12 34.5c0 0 0 0 0 0s-478 479-478 479c-8.667 8-18.667 12.333-30 13 0 0 0 0 0 0s-348 13-348 13c-20.667 0-39-7.333-55-22 0 0 0 0 0 0zM192 699c0 0 0 0 0 0 13.333 12 28.333 17.833 45 17.5s31.167-6.833 43.5-19.5c12.333-12.667 18.5-27.333 18.5-44s-6.167-31.167-18.5-43.5c-12.333-12.333-26.833-18.667-43.5-19s-31.5 5.667-44.5 18c-13 12.333-19.5 27.333-19.5 45s6.333 32.833 19 45.5zM170 721c0 0 0 0 0 0-18.667-19.333-28-41.5-28-66.5s9.5-47 28.5-66c19-19 41.167-28.5 66.5-28.5s47.5 9.5 66.5 28.5c19 19 28.5 41 28.5 66s-9.333 47-28 66c-18.667 19-41 28.5-67 28.5s-48.333-9.333-67-28z" />
<glyph unicode="&#xe638;" glyph-name="uniE638" d="M580 357c0 0 161 0 161 0s0 187 0 187c0 0-157 0-157 0s0 113 0 113c-1.333 2 1 10.5 7 25.5s23 23.5 51 25.5c0 0 0 0 0 0s153 0 153 0c0 0 0 188 0 188s-245 0-245 0c-82.667-8.667-134.833-42.333-156.5-101s-31.167-92-28.5-100c0 0 0 0 0 0s0-147 0-147c0 0-136 0-136 0s0-188 0-188c0 0 136 0 136 0s0-488 0-488c0 0 215 0 215 0s0 485 0 485z" />
<glyph unicode="&#xe642;" glyph-name="uniE642" d="M668 35c0 0-232 234-232 234s-31 31-31 31c0 0 263 265 263 265 4.667 4.667 7 9.833 7 15.5s-2.333 10.833-7 15.5c-4.667 4.667-9.833 7-15.5 7s-10.833-2.333-15.5-7c0 0 0 0 0 0s-279-280-279-280c-4.667-4.667-7-10-7-16s2.333-11.333 7-16c0 0 0 0 0 0s279-280 279-280c4.667-4.667 9.833-7 15.5-7s10.833 2.333 15.5 7c4.667 4.667 7 9.833 7 15.5s-2.333 10.833-7 15.5c0 0 0 0 0 0z" />
<glyph unicode="&#xe644;" glyph-name="uniE644" d="M410 708c0 0 0-161 0-161s188 272 188 272c35.333 51.333 81 77 137 77 0 0 0 0 0 0 46 0 85.667-16.333 119-49s50-71.667 50-117c0 0 0 0 0 0 0-33.333-8.667-62.667-26-88 0 0 0 0 0 0s-170-246-170-246c0 0 208-263 208-263 20.667-26 31-56.667 31-92 0 0 0 0 0 0 0-46-16.333-85.667-49-119s-72.333-50-119-50c0 0 0 0 0 0-50.667 0-89.333 16.667-116 50 0 0 0 0 0 0s-253 316-253 316c0 0 0-174 0-174 0-50-8.667-89-26-117 0 0 0 0 0 0-31.333-50-77-75-137-75 0 0 0 0 0 0-54.667 0-97 18.333-127 55 0 0 0 0 0 0-28 34.667-42 80-42 136 0 0 0 0 0 0s0 647 0 647c0 52.667 14 96.333 42 131 0 0 0 0 0 0 30 36.667 71.333 55 124 55 0 0 0 0 0 0 50.667 0 92.667-18.333 126-55 0 0 0 0 0 0 18.667-20 30.333-40.333 35-61 0 0 0 0 0 0 3.333-12.667 5-36.667 5-72 0 0 0 0 0 0z" />
<glyph unicode="&#xe645;" glyph-name="uniE645" d="M575 405c0 0 0 0 0 0 3.333-24-6.167-43.167-28.5-57.5s-43.5-15.5-63.5-3.5c0 0 0 0 0 0-15.333 6.667-25.667 17.833-31 33.5s-5.333 31.167 0 46.5c5.333 15.333 15 26.333 29 33s28 9 42 7c14-2 26.167-8.667 36.5-20s15.5-24.333 15.5-39zM639 417c0 0 0 0 0 0-5.333 40.667-26.833 71.833-64.5 93.5s-75.167 24.167-112.5 7.5c0 0 0 0 0 0-24-10.667-43.167-27.5-57.5-50.5s-21.167-47.5-20.5-73.5c0 0 0 0 0 0 2-34.667 17-64.167 45-88.5s59.333-35 94-32c34.667 3 63.667 19 87 48s33 60.833 29 95.5zM775 727c0 0 0 0 0 0-7.333 10-17.833 18.333-31.5 25s-24.667 10.833-33 12.5c-8.333 1.667-21.833 4.167-40.5 7.5 0 0 0 0 0 0-111.333 18-219.333 17.667-324-1 0 0 0 0 0 0-16-2.667-28.5-5-37.5-7s-19.5-6.167-31.5-12.5c-12-6.333-21.667-14.5-29-24.5 0 0 0 0 0 0 12-10.667 26.667-19.333 44-26s31.333-10.833 42-12.5c10.667-1.667 27.333-3.833 50-6.5 0 0 0 0 0 0 86.667-11.333 172-11.667 256-1 0 0 0 0 0 0s51 7 51 7c10 1.333 23.833 5.333 41.5 12s31.833 15.667 42.5 27zM808 135c0 0 0 0 0 0-3.333-9.333-6.333-23.667-9-43s-5.333-35.333-8-48c-2.667-12.667-8.167-26-16.5-40s-19.167-25-32.5-33c0 0 0 0 0 0-33.333-18-69.667-31.5-109-40.5s-77.667-13.167-115-12.5c-37.333 0.667-75.667 4.333-115 11 0 0 0 0 0 0-18 2.667-33.667 6-47 10s-27.833 9.167-43.5 15.5c-15.667 6.333-29.667 14.5-42 24.5s-22.167 21.667-29.5 35c0 0 0 0 0 0-9.333 36.667-20.333 92.333-33 167 0 0 0 0 0 0s4 9 4 9c0 0 10 5 10 5 85.333-56 182-84 290-84s204.667 28 290 84c0 0 0 0 0 0 8-2 12.5-6.167 13.5-12.5s0-14.833-3-25.5c-3-10.667-4.5-18-4.5-22zM911 685c0 0 0 0 0 0-10-64-31-189-63-375 0 0 0 0 0 0-2-11.333-7.167-22-15.5-32s-16.667-17.667-25-23c-8.333-5.333-18.833-11-31.5-17 0 0 0 0 0 0-96-48-212-65-348-51 0 0 0 0 0 0-94.667 10.667-169.667 37.333-225 80 0 0 0 0 0 0-6 4.667-11 9.667-15 15s-7.167 12-9.5 20c-2.333 8-4.167 14.333-5.5 19 0 0 0 0 0 0s-3 23-3 23c-1.333 10-2.333 16.667-3 20 0 0 0 0 0 0s-31 178-31 178c-4 23.333-8.5 51.333-13.5 84s-9.167 63-12.5 91c0 0 0 0 0 0 0.667 9.333 3.833 18.333 9.5 27s11.667 15.833 18 21.5c6.333 5.667 14.833 11.333 25.5 17s19.667 10.167 27 13.5c0 0 0 0 0 0s27 10 27 10c47.333 18 107 30.333 179 37 0 0 0 0 0 0 144 14 272.667 4.333 386-29 0 0 0 0 0 0 59.333-17.333 100.333-40.333 123-69 0 0 0 0 0 0 6-8 9.167-17.833 9.5-29.5s-0.833-21.833-3.5-30.5z" />
<glyph unicode="&#xe64b;" glyph-name="uniE64B" d="M707 96c0 0-707 0-707 0s317 576 317 576c0 0 707 0 707 0s-317-576-317-576z" />
<glyph unicode="&#xe660;" glyph-name="uniE660" d="M0 384c0 0 0 0 0 0 2-67.333 25.333-123.333 70-168s100.333-67.667 167-69c0 0 0 0 0 0 67.333 1.333 123.5 24.333 168.5 69s68.167 100.667 69.5 168c0 0 0 0 0 0-1.333 67.333-24.5 123.333-69.5 168s-101.167 67.667-168.5 69c0 0 0 0 0 0-66.667-1.333-122.333-24.333-167-69s-68-100.667-70-168zM549 384c0 0 0 0 0 0 0-32 6-62.333 18-91s29.167-54.167 51.5-76.5c22.333-22.333 48-39.5 77-51.5s59.167-18 90.5-18c0 0 0 0 0 0 67.333 1.333 123.333 24.333 168 69s68 100.667 70 168c0 0 0 0 0 0-2 67.333-25.333 123.333-70 168s-100.333 67.667-167 69c0 0 0 0 0 0-32 0-62.5-6-91.5-18s-54.667-29.167-77-51.5c-22.333-22.333-39.5-47.833-51.5-76.5s-18-59-18-91z" />
<glyph unicode="&#xe664;" glyph-name="uniE664" d="M512 823c0 0 0 0 0 0-124-3.333-227.333-46.333-310-129s-125.667-186-129-310c0 0 0 0 0 0 3.333-124 46.333-227.333 129-310s186-125.667 310-129c0 0 0 0 0 0 124 3.333 227.333 46.333 310 129s125.667 186 129 310c0 0 0 0 0 0-3.333 124-46.333 227.333-129 310s-186 125.667-310 129zM512 18c0 0 0 0 0 0-104.667 2.667-191.167 38.167-259.5 106.5s-103.833 154.833-106.5 259.5c0 0 0 0 0 0 2.667 104.667 38.167 191.167 106.5 259.5s154.833 103.833 259.5 106.5c0 0 0 0 0 0 104.667-2.667 191.167-38.167 259.5-106.5s103.833-154.833 106.5-259.5c0 0 0 0 0 0-2.667-104.667-38.167-191.167-106.5-259.5s-154.833-103.833-259.5-106.5zM658 421c0 0 0 0 0 0s-88 0-88 0c-8 0.667-12.667 5.333-14 14 0 0 0 0 0 0s0 168 0 168c0 11.333-3.333 20.333-10 27s-15.667 10-27 10c-11.333 0-21.333-3.333-30-10s-13.333-15.667-14-27c0 0 0 0 0 0s0-219 0-219c0.667-11.333 4.167-20.167 10.5-26.5s15.167-9.833 26.5-10.5c0 0 0 0 0 0s146 0 146 0c11.333 0.667 20.333 4.167 27 10.5s10 15.167 10 26.5c0 11.333-3.333 20.167-10 26.5s-15.667 9.833-27 10.5z" />
<glyph unicode="&#xe665;" glyph-name="uniE665" d="M446-16c0 0 0 0 0 0-0.667-11.333-4.833-20.833-12.5-28.5s-17.167-11.5-28.5-11.5c-11.333 0-20.833 3.833-28.5 11.5s-11.5 17.167-11.5 28.5c0 11.333 3.833 20.833 11.5 28.5s17.167 11.5 28.5 11.5c11.333 0 20.833-3.833 28.5-11.5s11.833-17.167 12.5-28.5zM698-16c0 0 0 0 0 0 0-11.333-3.833-20.833-11.5-28.5s-17.333-11.5-29-11.5c-11.667 0-21.333 3.833-29 11.5s-11.5 17.167-11.5 28.5c0 11.333 3.833 20.833 11.5 28.5s17.333 11.5 29 11.5c11.667 0 21.333-3.833 29-11.5s11.5-17.167 11.5-28.5zM892 375c0 0 0 0 0 0s-7 9-7 9c0 0-25 30-25 30s-15 15-15 15c-48.667 48-105 83.667-169 107 0 0 0 0 0 0s-10 3-10 3c0 0 1 4 1 4 9.333 22.667 13.5 46 12.5 70s-6.667 47-17 69c-10.333 22-24.5 40.833-42.5 56.5s-38.667 27.5-62 35.5c0 0 0 0 0 0-28 9.333-52.333 13.667-73 13 0 0 0 0 0 0-1.333 2-1.167 9 0.5 21s8.5 31.333 20.5 58c0 0 0 0 0 0s-51 30-51 30c0 0-12-17-12-17-14.667-19.333-28.333-38.333-41-57 0 0 0 0 0 0-14 15.333-31.667 23.667-53 25 0 0 0 0 0 0s-64 4-64 4c-22-0.667-40.333-8-55-22s-23-31.667-25-53c0 0 0 0 0 0s-4-60-4-60c-0.667-22.667 6-41.833 20-57.5s32.333-24.5 55-26.5c0 0 0 0 0 0s43-3 43-3c-2.667-36 3-68.667 17-98 0 0 0 0 0 0-58.667-25.333-110.667-60.667-156-106 0 0 0 0 0 0-67.333-72.667-108.333-145.667-123-219s-20.667-142-18-206c0 0 0 0 0 0s0-75 0-75c0 0 56 59 56 59 11.333-40 27.333-77.333 48-112 0 0 0 0 0 0s73 0 73 0c-36.667 49.333-60.667 104-72 164 0 0 0 0 0 0s82 87 82 87c0 0-42-132-42-132s74 54 74 54c132 95.333 287.333 117 466 65 0 0 0 0 0 0 38.667-10.667 75-11.333 109-2s61 28 81 56c0 0 0 0 0 0s5 7 5 7c4-21.333 6-42.667 6-64 0 0 0 0 0 0 0.667-34-3.167-71.667-11.5-113s-24.167-82-47.5-122c0 0 0 0 0 0s69 0 69 0c33.333 67.333 50 145.667 50 235 0 0 0 0 0 0 0 47.333-8 93.833-24 139.5s-39 88.5-69 128.5zM379 632c0 0 0 0 0 0 3.333 21.333 9.5 42.333 18.5 63s20.5 42 34.5 64c0 0 0 0 0 0 5.333-10.667 12.833-18.833 22.5-24.5s20.5-8.167 32.5-7.5c0 0 0 0 0 0 4.667 0 11.167-0.667 19.5-2s19.167-4 32.5-8c0 0 0 0 0 0 15.333-5.333 28.833-13.167 40.5-23.5s21.167-22.833 28.5-37.5c0 0 0 0 0 0 14-30 15-60.667 3-92 0 0 0 0 0 0-7.333-18.667-18.667-34.333-34-47 0 0 0 0 0 0s-18 21-18 21c-11.333 13.333-25.167 20.833-41.5 22.5s-31.5-2.833-45.5-13.5c0 0 0 0 0 0-14.667-12-22.333-27-23-45 0 0 0 0 0 0-26 12-45 29.167-57 51.5s-16.333 48.5-13 78.5c0 0 0 0 0 0zM581 391c0 0-18 23-18 23s-22-18-22-18c-2-2-4.333-2.833-7-2.5s-5 1.5-7 3.5c0 0 0 0 0 0s-5 6-5 6c-3.333 5.333-2.667 10 2 14 0 0 0 0 0 0s22 18 22 18c0 0-45 55-45 55-2.667 3.333-3.833 6.833-3.5 10.5s2 6.667 5 9c3 2.333 6.333 3.167 10 2.5s6.5-2.333 8.5-5c0 0 0 0 0 0s126-155 126-155c3.333-4 4.167-8.333 2.5-13s-5-7.5-10-8.5c-5-1-9.167 0.5-12.5 4.5 0 0 0 0 0 0s-13 15-13 15c0 0-44-36-44-36-2-1.333-4.5-2-7.5-2s-5.5 1.333-7.5 4c0 0 0 0 0 0s-20 24-20 24c-3.333 5.333-2.667 10.333 2 15 0 0 0 0 0 0s44 36 44 36zM331 688c0 0 0 0 0 0s-51 4-51 4c-6 0-10.667 2-14 6s-5 8.667-5 14c0 0 0 0 0 0s4 60 4 60c0.667 5.333 2.833 9.833 6.5 13.5s8.167 5.5 13.5 5.5c0 0 0 0 0 0s61-4 61-4c5.333-0.667 9.667-3 13-7s5-8.667 5-14c0 0 0 0 0 0s0-4 0-4c-14-23.333-25-48-33-74 0 0 0 0 0 0zM865 199c0 0 0 0 0 0-12.667-17.333-29.833-28.833-51.5-34.5s-46.167-4.5-73.5 3.5c0 0 0 0 0 0-166 48.667-314.667 38.667-446-30 0 0 0 0 0 0s70 219 70 219c0 0-226-240-226-240 3.333 81.333 27.167 153.333 71.5 216s102.167 109 173.5 139c0 0 0 0 0 0 20.667-16 44.667-28 72-36 0 0 0 0 0 0 6.667-2 13.333-3.333 20-4 0 0 0 0 0 0-4-10.667-5.167-21.167-3.5-31.5s5.833-19.833 12.5-28.5c0 0 0 0 0 0s4-4 4-4c-4-10-5.167-20.167-3.5-30.5s5.833-19.833 12.5-28.5c0 0 0 0 0 0s20-25 20-25c12-14 27.333-21.333 46-22 0 0 0 0 0 0 14 0.667 26.667 5.333 38 14 0 0 0 0 0 0s12 10 12 10c7.333-3.333 15.333-5 24-5 0 0 0 0 0 0 15.333 0 28.667 4.667 40 14 0 0 0 0 0 0 13.333 11.333 20.833 25.333 22.5 42s-2.833 32-13.5 46c0 0 0 0 0 0s-71 87-71 87c6 5.333 11.667 11 17 17 0 0 0 0 0 0s17-5 17-5c11.333-4.667 22.667-9.333 34-14 0 0 0 0 0 0 44-20 83.333-47 118-81 0 0 0 0 0 0s11-11 11-11c5.333-5.333 10.333-10.667 15-16 0 0 0 0 0 0s11-14 11-14c0 0 10-13 10-13 18-24.667 28.5-48.667 31.5-72s-1.833-44-14.5-62c0 0 0 0 0 0zM332 756c0 0-3-36-3-36s-35 3-35 3c0 0 2 35 2 35s36-2 36-2z" />
<glyph unicode="&#xe666;" glyph-name="uniE666" d="M656 314c0 0 0 0 0 0s-259 261-259 261c-4 4-8.833 6-14.5 6s-10.5-2-14.5-6c-4-4-6-8.667-6-14s2-10.333 6-15c0 0 0 0 0 0s128-129 128-129c0 0 122-121 122-121s-255-255-255-255c-0.667-6 1.167-11.167 5.5-15.5s9.167-6.5 14.5-6.5c5.333 0 10 2 14 6 0 0 0 0 0 0s259 260 259 260c4 4.667 6 9.667 6 15s-2 10-6 14z" />
<glyph unicode="&#xe667;" glyph-name="uniE667" d="M295-127c0 0 0-1 0-1s-133 0-133 0c-14 0.667-24.833 5.667-32.5 15s-10.167 21.333-7.5 36c0 0 0 0 0 0s7 28 7 28c0 0 88 0 88 0 14.667 0.667 28 5.667 40 15s19.667 21.333 23 36c0 0 0 0 0 0s46 196 46 196c3.333 14 11 25.667 23 35s25.333 14.333 40 15c0 0 0 0 0 0s38 0 38 0c161.333 0 286.833 33.167 376.5 99.5s134.5 153.5 134.5 261.5c0 0 0 0 0 0 0 48-8.333 87.667-25 119 0 0 0 0 0 0s0 2 0 2c0 0 5-3 5-3 32-19.333 56.5-45 73.5-77s25.5-71.667 25.5-119c0 0 0 0 0 0 0-108-45-195.167-135-261.5s-215.667-99.5-377-99.5c0 0 0 0 0 0s-38 0-38 0c-14.667-0.667-28-5.667-40-15s-20-21.333-24-36c0 0 0 0 0 0s-45-196-45-196c-3.333-14-11-25.667-23-35s-25.333-14.333-40-15c0 0 0 0 0 0zM180-11c0 0 1-2 1-2s-133 0-133 0c-14 0.667-24.833 5.667-32.5 15s-10.167 21.333-7.5 36c0 0 0 0 0 0s187 808 187 808c3.333 14 11 25.667 23 35s25.333 14.333 40 15c0 0 0 0 0 0s276 0 276 0c59.333 0 111-4 155-12s82.167-22 114.5-42c32.333-20 56.667-46 73-78s24.5-71.667 24.5-119c0 0 0 0 0 0 0-108.667-45-196-135-262s-215.667-99-377-99c0 0 0 0 0 0s-37 0-37 0c-14.667 0-28-4.667-40-14s-19.667-21-23-35c0 0 0 0 0 0s-46-196-46-196c-3.333-14-11-25.833-23-35.5s-25.333-14.5-40-14.5c0 0 0 0 0 0zM497 728c0 0 1 0 1 0s-43 0-43 0c-14.667 0-28-4.833-40-14.5s-19.667-21.5-23-35.5c0 0 0 0 0 0s-40-172-40-172c-2.667-14-0.333-25.667 7-35s18.333-14.333 33-15c0 0 0 0 0 0s33 0 33 0c70.667 0 125.833 14.5 165.5 43.5s59.5 70.5 59.5 124.5c0 0 0 0 0 0 0 35.333-12.833 61.5-38.5 78.5s-63.833 25.5-114.5 25.5c0 0 0 0 0 0z" />
<glyph unicode="&#xe681;" glyph-name="uniE681" horiz-adv-x="1725" d="M1464 466c0 0 0 0 0 0-67.333 19.333-121.833 39.167-163.5 59.5s-63.167 55.5-64.5 105.5c0 0 0 0 0 0 0.667 38 13.667 69 39 93s58.667 36.667 100 38c0 0 0 0 0 0 28.667 0 54.833-6.333 78.5-19s45.833-33.333 66.5-62c0 0 0 0 0 0s110 56 110 56c-28 49.333-62.5 86.5-103.5 111.5s-89.5 37.5-145.5 37.5c0 0 0 0 0 0-86.667-1.333-154.5-25.167-203.5-71.5s-73.667-108.5-74-186.5c-0.333-78 25.167-138.333 76.5-181s127.333-79.667 228-111c0 0 0 0 0 0 56.667-16.667 100.5-35.167 131.5-55.5s46.5-53.167 46.5-98.5c0 0 0 0 0 0-0.667-50-20.333-91-59-123s-90-47.667-154-47c0 0 0 0 0 0-62.667 2.667-109 20-139 52s-55.667 75-77 129c0 0 0 0 0 0-56.667 128.667-112.667 257.667-168 387 0 0 0 0 0 0-44.667 101.333-108 179.167-190 233.5s-177 81.833-285 82.5c0 0 0 0 0 0-145.333-3.333-266.333-53.167-363-149.5s-147-217.167-151-362.5c0 0 0 0 0 0 4-145.333 54.333-266.167 151-362.5s217.667-146.167 363-149.5c0 0 0 0 0 0 78 0 151.333 16.333 220 49s128 78.667 178 138c0 0 0 0 0 0s-67 153-67 153c-33.333-62-79.167-110.667-137.5-146s-122.833-53.333-193.5-54c0 0 0 0 0 0-106 2.667-194 39-264 109s-106.333 157.667-109 263c0 0 0 0 0 0 2.667 105.333 39 193 109 263s158 106.333 264 109c0 0 0 0 0 0 77.333-1.333 146.5-21.833 207.5-61.5s105.833-92.833 134.5-159.5c0 0 0 0 0 0s164-373 164-373c0 0 19-42 19-42 32-77.333 74.833-136.833 128.5-178.5s124.833-62.833 213.5-63.5c0 0 0 0 0 0 99.333 1.333 181 29.5 245 84.5s97 126.5 99 214.5c0 0 0 0 0 0 0.667 80.667-20.5 142.333-63.5 185s-108.833 77.333-197.5 104z" />
<glyph unicode="&#xe684;" glyph-name="uniE684" d="M512 128c0 0 0 0 0 0-72.667 2-133 27-181 75s-73 108.333-75 181c0 0 0 0 0 0 2 72.667 27 133 75 181s108.333 73 181 75c0 0 0 0 0 0 72.667-2 133-27 181-75s73-108.333 75-181c0 0 0 0 0 0-2-72.667-27-133-75-181s-108.333-73-181-75zM512 213c0 0 0 0 0 0 48.667 1.333 89 18 121 50s48.667 72.333 50 121c0 0 0 0 0 0-1.333 48.667-18 89-50 121s-72.333 48.667-121 50c0 0 0 0 0 0-48.667-1.333-89-18-121-50s-48.667-72.333-50-121c0 0 0 0 0 0 1.333-48.667 18-89 50-121s72.333-48.667 121-50zM469 725c0 0 0 86 0 86 0 7.333 2 14.333 6 21s9.333 11.833 16 15.5c6.667 3.667 13.667 5.5 21 5.5s14.333-1.833 21-5.5c6.667-3.667 12-8.833 16-15.5s6-13.667 6-21c0 0 0 0 0 0s0-86 0-86c0-7.333-2-14.333-6-21s-9.333-11.833-16-15.5c-6.667-3.667-13.667-5.5-21-5.5s-14.333 1.833-21 5.5c-6.667 3.667-12 8.833-16 15.5s-6 13.667-6 21c0 0 0 0 0 0zM469-43c0 0 0 86 0 86 0 7.333 2 14.333 6 21s9.333 11.833 16 15.5c6.667 3.667 13.667 5.5 21 5.5s14.333-1.833 21-5.5c6.667-3.667 12-8.833 16-15.5s6-13.667 6-21c0 0 0 0 0 0s0-86 0-86c0-7.333-2-14.333-6-21s-9.333-11.833-16-15.5c-6.667-3.667-13.667-5.5-21-5.5s-14.333 1.833-21 5.5c-6.667 3.667-12 8.833-16 15.5s-6 13.667-6 21c0 0 0 0 0 0zM171 341c0 0-86 0-86 0-7.333 0-14.333 2-21 6s-11.833 9.333-15.5 16c-3.667 6.667-5.5 13.667-5.5 21s1.833 14.333 5.5 21c3.667 6.667 8.833 12 15.5 16s13.667 6 21 6c0 0 0 0 0 0s86 0 86 0c7.333 0 14.333-2 21-6s11.833-9.333 15.5-16c3.667-6.667 5.5-13.667 5.5-21s-1.833-14.333-5.5-21c-3.667-6.667-8.833-12-15.5-16s-13.667-6-21-6c0 0 0 0 0 0zM939 341c0 0-86 0-86 0-7.333 0-14.333 2-21 6s-11.833 9.333-15.5 16c-3.667 6.667-5.5 13.667-5.5 21s1.833 14.333 5.5 21c3.667 6.667 8.833 12 15.5 16s13.667 6 21 6c0 0 0 0 0 0s86 0 86 0c7.333 0 14.333-2 21-6s11.833-9.333 15.5-16c3.667-6.667 5.5-13.667 5.5-21s-1.833-14.333-5.5-21c-3.667-6.667-8.833-12-15.5-16s-13.667-6-21-6c0 0 0 0 0 0zM226 610c0 0-64 64-64 64-8 8.667-12 18.667-12 30s4.167 21.167 12.5 29.5c8.333 8.333 18.167 12.5 29.5 12.5s21.333-4 30-12c0 0 0 0 0 0s64-64 64-64c8-8.667 12-18.667 12-30s-4.167-21.167-12.5-29.5c-8.333-8.333-18.167-12.5-29.5-12.5s-21.333 4-30 12c0 0 0 0 0 0zM802 34c0 0-64 64-64 64-8 8.667-12 18.667-12 30s4.167 21.167 12.5 29.5c8.333 8.333 18.167 12.5 29.5 12.5s21.333-4 30-12c0 0 0 0 0 0s64-64 64-64c8-8.667 12-18.667 12-30s-4.167-21.167-12.5-29.5c-8.333-8.333-18.167-12.5-29.5-12.5s-21.333 4-30 12c0 0 0 0 0 0zM286 98c0 0-64-64-64-64-8.667-8-18.667-12-30-12s-21.167 4.167-29.5 12.5c-8.333 8.333-12.5 18.167-12.5 29.5s4 21.333 12 30c0 0 0 0 0 0s64 64 64 64c8.667 8 18.667 12 30 12s21.167-4.167 29.5-12.5c8.333-8.333 12.5-18.167 12.5-29.5s-4-21.333-12-30c0 0 0 0 0 0zM862 674c0 0-64-64-64-64-8.667-8-18.667-12-30-12s-21.167 4.167-29.5 12.5c-8.333 8.333-12.5 18.167-12.5 29.5s4 21.333 12 30c0 0 0 0 0 0s64 64 64 64c8.667 8 18.667 12 30 12s21.167-4.167 29.5-12.5c8.333-8.333 12.5-18.167 12.5-29.5s-4-21.333-12-30c0 0 0 0 0 0z" />
<glyph unicode="&#xe688;" glyph-name="uniE688" d="M134 721c0 0 0 0 0 0s756 0 756 0c8.667 0 16.167 3.167 22.5 9.5s9.5 13.833 9.5 22.5c0 0 0 0 0 0s0 46 0 46c0 9.333-3.167 17-9.5 23s-13.833 9.333-22.5 10c0 0 0 0 0 0s-756 0-756 0c-8.667-0.667-16.167-4-22.5-10s-9.5-13.667-9.5-23c0 0 0 0 0 0s0-46 0-46c0-8.667 3.167-16.167 9.5-22.5s13.833-9.5 22.5-9.5zM915 47c0 0 0 0 0 0s-164 0-164 0c-13.333 0.667-22.833 6.167-28.5 16.5s-5.5 21.167 0.5 32.5c0 0 0 0 0 0 18 30.667 36.667 63 56 97 0 0 0 0 0 0s10 18 10 18c0 0-110 59-110 59s-9-20-9-20c-27.333-60.667-57.667-122.667-91-186 0 0 0 0 0 0-6-10.667-15.333-16.333-28-17 0 0 0 0 0 0s-123 0-123 0c0 0 38 27 38 27s-9 16-9 16c-32.667 54.667-67 110-103 166 0 0 0 0 0 0s-12 17-12 17c0 0-91-62-91-62s11-17 11-17c19.333-30 39.333-63 60-99 0 0 0 0 0 0 5.333-11.333 5.167-22-0.5-32s-15.167-15.333-28.5-16c0 0 0 0 0 0s-184 0-184 0c-9.333 0-17-3.167-23-9.5s-9.333-13.833-10-22.5c0 0 0 0 0 0s0-46 0-46c0.667-9.333 4-17 10-23s13.667-9.333 23-10c0 0 0 0 0 0s806 0 806 0c9.333 0.667 17 4 23 10s9.333 13.667 10 23c0 0 0 0 0 0s0 46 0 46c-0.667 8.667-4 16.167-10 22.5s-13.667 9.5-23 9.5zM806 646c0 0-590 0-590 0-9.333-0.667-17-4-23-10s-9.333-13.667-10-23c0 0 0 0 0 0s0-285 0-285c0.667-8.667 4-16.167 10-22.5s13.667-9.5 23-9.5c0 0 0 0 0 0s590 0 590 0c9.333 0 17 3.167 23 9.5s9 13.833 9 22.5c0 0 0 0 0 0s0 285 0 285c0 9.333-3 17-9 23s-13.667 9.333-23 10c0 0 0 0 0 0zM732 504c0 0 0-70 0-70 0-9.333-3-17-9-23s-13.667-9.333-23-10c0 0 0 0 0 0s-379 0-379 0c-8.667 0.667-16.167 4-22.5 10s-9.5 13.667-9.5 23c0 0 0 0 0 0s0 70 0 70c0 9.333 3.167 17 9.5 23s13.833 9.333 22.5 10c0 0 0 0 0 0s379 0 379 0c9.333-0.667 17-4 23-10s9-13.667 9-23c0 0 0 0 0 0z" />
<glyph unicode="&#xe691;" glyph-name="uniE691" d="M856 679c0 0 0 0 0 0 15.333 35.333 18.833 69 10.5 101s-13.833 49.333-16.5 52c0 0 0 0 0 0-46.667-2.667-84.333-12.833-113-30.5s-43.333-27.833-44-30.5c0 0 0 0 0 0-22 9.333-52 15.167-90 17.5s-59 3.5-63 3.5c-4 0-25-1.167-63-3.5s-68-8.167-90-17.5c0 0 0 0 0 0-0.667 2.667-15.333 12.833-44 30.5s-66.333 27.833-113 30.5c0 0 0 0 0 0-2.667-2.667-8.167-20-16.5-52s-4.5-65.667 11.5-101c0 0 0 0 0 0-4 0-16.333-19.5-37-58.5s-25.333-99.167-14-180.5c0 0 0 0 0 0 17.333-75.333 51.5-126.833 102.5-154.5s99.833-40.5 146.5-38.5c0 0 0 0 0 0-1.333-0.667-7-8-17-22s-14.667-34-14-60c0 0 0 0 0 0-0.667-1.333-11.167-5.5-31.5-12.5s-43.5-6.167-69.5 2.5c0 0 0 0 0 0-25.333 12-44.5 26.5-57.5 43.5s-19.5 26.167-19.5 27.5c0 0 0 0 0 0-0.667 3.333-11.167 13.333-31.5 30s-43.5 20.333-69.5 11c0 0 0 0 0 0-2 0-2.333-3.667-1-11s15-17.333 41-30c0 0 0 0 0 0s23-35 23-35c13.333-21.333 24.5-41.667 33.5-61s30.333-34.167 64-44.5c33.667-10.333 71.5-10.833 113.5-1.5 0 0 0 0 0 0s0-117 0-117c0.667-0.667 0-2.667-2-6s-8-6.5-18-9.5c-10-3-15.5-6.167-16.5-9.5s1.167-5.333 6.5-6c0 0 0 0 0 0s366 0 366 0c5.333 0.667 7.5 2.667 6.5 6s-6.5 6.5-16.5 9.5c-10 3-16 6.167-18 9.5s-2.667 5.333-2 6c0 0 0 0 0 0s0 198 0 198c-2 26-8.167 46-18.5 60s-16.167 21.333-17.5 22c0 0 0 0 0 0 46.667-2 95.5 10.833 146.5 38.5s85.167 79.167 102.5 154.5c0 0 0 0 0 0 11.333 81.333 6.833 141.5-13.5 180.5s-32.5 58.5-36.5 58.5z" />
<glyph unicode="&#xe693;" glyph-name="uniE693" d="M960 832c0 0-896 0-896 0s0-896 0-896c0 0 896 0 896 0s0 896 0 896zM588 178c0 0 0-15 0-15-7.333-4-21.333-5-42-3s-40 12.667-58 32c0 0 0 0 0 0-9.333 10.667-21.333 26.833-36 48.5s-30.667 47.833-48 78.5c0 0 0 0 0 0s-23 0-23 0c-6.667 0-13.333 0.333-20 1 0 0 0 0 0 0s0-93 0-93c0-22 3.833-35 11.5-39s21.167-7 40.5-9c0 0 0 0 0 0s0-16 0-16c0 0-32 1-32 1s-39 1-39 1c0 0-68-2-68-2s0 16 0 16c15.333 2 26.667 5.167 34 9.5s10.667 17.167 10 38.5c0 0 0 0 0 0s0 219 0 219c0.667 21.333-2.5 34.167-9.5 38.5s-18.5 7.5-34.5 9.5c0 0 0 0 0 0s0 16 0 16c26.667-0.667 52.5-0.667 77.5 0s46.5 1 64.5 1c0 0 0 0 0 0 32.667 0 59.333-7.333 80-22s31.333-37.667 32-69c0 0 0 0 0 0-0.667-22-8.167-41.833-22.5-59.5s-32.833-29.5-55.5-35.5c0 0 0 0 0 0 13.333-24.667 27.5-47.167 42.5-67.5s28.833-37.167 41.5-50.5c0 0 0 0 0 0 7.333-8 15.667-14.833 25-20.5s19-8.5 29-8.5c0 0 0 0 0 0zM634 433c0 0 0 0 0 0-22.667 0.667-39.167 7.333-49.5 20s-15.167 27.667-14.5 45c0 0 0 0 0 0s0 64 0 64c-0.667 13.333 4.167 26.5 14.5 39.5s28.167 20.167 53.5 21.5c0 0 0 0 0 0 24.667-1.333 41.167-7.333 49.5-18s12.167-16.667 11.5-18c0 0 0 0 0 0s-22-14-22-14c0 0.667-3 4.667-9 12s-16 11.667-30 13c0 0 0 0 0 0-8.667-0.667-17.333-4.333-26-11s-13.333-16.333-14-29c0 0 0 0 0 0s0-53 0-53c0.667-14 4-25.333 10-34s14.667-13 26-13c0 0 0 0 0 0 14 0 24.667 4.833 32 14.5s11 22.833 11 39.5c0 0 0 0 0 0s-36 0-36 0c0 0 0 21 0 21s61 0 61 0c2-22 0.333-43.667-5-65s-26.333-33-63-35zM401 344c0 0 0 0 0 0-8.667 0-16 0-22 0 0 0 0 0 0 0s-18 1-18 1c0 0 0 140 0 140 6.667 0.667 14 1 22 1 0 0 0 0 0 0s23 0 23 0c23.333 0 41.5-5.833 54.5-17.5s19.5-28.667 19.5-51c0-22.333-6.833-40.167-20.5-53.5s-33.167-20-58.5-20z" />
<glyph unicode="&#xe696;" glyph-name="uniE696" d="M421-9c0 0-2 0-2 0s172 0 172 0c0 0 0 333 0 333 0 8.667 0.667 17.167 2 25.5s3.333 15.167 6 20.5c0 0 0 0 0 0 5.333 17.333 15.333 32.833 30 46.5s34 20.833 58 21.5c0 0 0 0 0 0 30.667-0.667 53-12.333 67-35s20.667-52.667 20-90c0 0 0 0 0 0s0-320 0-320c0 0 172 0 172 0s0 342 0 342c-0.667 85.333-19.167 148.333-55.5 189s-83.5 60.667-141.5 60c0 0 0 0 0 0-46-1.333-83.167-12-111.5-32s-47.833-39.667-58.5-59c0 0 0 0 0 0s-4 0-4 0c0 0-7 78-7 78s-151 0-151 0c2.667-50.667 4-112 4-184 0 0 0 0 0 0s0-396 0-396zM196 820c0 0 0 0 0 0-28 0-50-8.5-66-25.5s-24-38.833-24-65.5c0 0 0 0 0 0 0-25.333 8-46.5 24-63.5s38-25.833 66-26.5c0 0 0 0 0 0 28.667 0.667 51.333 9.5 68 26.5s25 38.167 25 63.5c0 0 0 0 0 0-2 26.667-11.167 48.5-27.5 65.5s-38.167 25.5-65.5 25.5zM110-9c0 0 172 0 172 0s0 579 0 579c0 0-172 0-172 0s0-579 0-579z" />
<glyph unicode="&#xe697;" glyph-name="uniE697" d="M179 513c0 0 0 0 0 0 0-42.667 8.333-80.5 25-113.5s42-56.833 76-71.5c0 0 0 0 0 0 12-4.667 20-0.333 24 13 0 0 0 0 0 0s10 39 10 39c2 6 2.5 10.667 1.5 14s-3.5 7.667-7.5 13c0 0 0 0 0 0-10 11.333-17.833 24.833-23.5 40.5s-8.5 33.833-8.5 54.5c0 0 0 0 0 0 0.667 63.333 22.333 117.5 65 162.5s101.667 68.5 177 70.5c0 0 0 0 0 0 66.667-1.333 117.333-19.167 152-53.5s52.333-78.5 53-132.5c0 0 0 0 0 0-0.667-72-15-132.5-43-181.5s-65.667-74.5-113-76.5c0 0 0 0 0 0-26.667 0.667-47.667 9.833-63 27.5s-20.333 39.5-15 65.5c0 0 0 0 0 0 8.667 31.333 18 62.167 28 92.5s15.333 57.167 16 80.5c0 0 0 0 0 0 0 20-5.333 36.833-16 50.5s-27.333 20.833-50 21.5c0 0 0 0 0 0-27.333-0.667-49.833-12.5-67.5-35.5s-26.833-53.167-27.5-90.5c0 0 0 0 0 0 0.667-22.667 3.333-41 8-55s7.333-21.333 8-22c0 0 0 0 0 0s-28-117-28-117c-16.667-70-28.333-119-35-147 0 0 0 0 0 0-8.667-41.333-11.5-80.667-8.5-118s5.5-59.667 7.5-67c0 0 0 0 0 0 0.667-2.667 2.167-4.167 4.5-4.5s4.5 0.167 6.5 1.5c0 0 0 0 0 0 4.667 4.667 17.5 22.333 38.5 53s37.833 66 50.5 106c0 0 0 0 0 0 4 15.333 10.667 40.333 20 75 0 0 0 0 0 0s15 59 15 59c9.333-16.667 25-30.833 47-42.5s46.667-17.833 74-18.5c0 0 0 0 0 0 80.667 2 144.667 33.5 192 94.5s71.667 140.5 73 238.5c0 0 0 0 0 0-1.333 74.667-29.833 139-85.5 193s-131.167 82.333-226.5 85c0 0 0 0 0 0-117.333-4.667-205.667-38.167-265-100.5s-89-130.167-89-203.5z" />
<glyph unicode="&#xe6b6;" glyph-name="uniE6B6" d="M658 384c0 0 0 0 0 0 0 40.667-14.167 75.167-42.5 103.5s-62.833 42.5-103.5 42.5c-40.667 0-75.167-14.167-103.5-42.5s-42.5-62.833-42.5-103.5c0-40.667 14.167-75.167 42.5-103.5s62.833-42.5 103.5-42.5c40.667 0 75.167 14.167 103.5 42.5s42.5 62.833 42.5 103.5zM737 384c0 0 0 0 0 0 0-62.667-21.833-115.833-65.5-159.5s-96.833-65.5-159.5-65.5c-62.667 0-115.833 21.833-159.5 65.5s-65.5 96.833-65.5 159.5c0 62.667 21.833 115.833 65.5 159.5s96.833 65.5 159.5 65.5c62.667 0 115.833-21.833 159.5-65.5s65.5-96.833 65.5-159.5zM799 618c0 0 0 0 0 0 0-14-5.167-26.167-15.5-36.5s-22.667-15.5-37-15.5c-14.333 0-26.667 5.167-37 15.5s-15.5 22.667-15.5 37c0 14.333 5.167 26.667 15.5 37s22.667 15.5 37 15.5c14.333 0 26.667-5.167 37-15.5s15.5-22.833 15.5-37.5zM616 744c0 0-104 0-104 0-2.667 0-17.333 0-44 0 0 0 0 0 0 0s-60 0-60 0c-14 0-32.5-0.5-55.5-1.5s-42.5-2.833-58.5-5.5c-16-2.667-29.667-6.333-41-11 0 0 0 0 0 0-18.667-7.333-35.333-18.333-50-33s-25.667-31.333-33-50c0 0 0 0 0 0-4.667-11.333-8.333-25-11-41s-4.5-35.5-5.5-58.5c-1-23-1.5-41.5-1.5-55.5 0 0 0 0 0 0s0-208 0-208c0-14 0.5-32.5 1.5-55.5s2.833-42.5 5.5-58.5c2.667-16 6.333-29.667 11-41 0 0 0 0 0 0 7.333-18.667 18.333-35.333 33-50s31.333-25.667 50-33c0 0 0 0 0 0 11.333-4.667 25-8.333 41-11s35.5-4.5 58.5-5.5c23-1 41.5-1.5 55.5-1.5 0 0 0 0 0 0s208 0 208 0c14 0 32.5 0.5 55.5 1.5s42.5 2.833 58.5 5.5c16 2.667 29.667 6.333 41 11 0 0 0 0 0 0 18.667 7.333 35.333 18.333 50 33s25.667 31.333 33 50c0 0 0 0 0 0 4.667 11.333 8.333 25 11 41s4.5 35.5 5.5 58.5c1 23 1.5 41.5 1.5 55.5 0 0 0 0 0 0s0 208 0 208c0 14-0.5 32.5-1.5 55.5s-2.833 42.5-5.5 58.5c-2.667 16-6.333 29.667-11 41 0 0 0 0 0 0-7.333 18.667-18.333 35.333-33 50s-31.333 25.667-50 33c0 0 0 0 0 0-11.333 4.667-25 8.333-41 11s-35.5 4.5-58.5 5.5c-23 1-41.5 1.5-55.5 1.5 0 0 0 0 0 0zM951 384c0 0 0 0 0 0 0-87.333-1-147.667-3-181 0 0 0 0 0 0-4-79.333-27.667-140.667-71-184s-104.667-67-184-71c0 0 0 0 0 0-33.333-2-93.667-3-181-3s-147.667 1-181 3c0 0 0 0 0 0-79.333 4-140.667 27.667-184 71s-67 104.667-71 184c0 0 0 0 0 0-2 33.333-3 93.667-3 181s1 147.667 3 181c0 0 0 0 0 0 4 79.333 27.667 140.667 71 184s104.667 67 184 71c0 0 0 0 0 0 33.333 2 93.667 3 181 3s147.667-1 181-3c0 0 0 0 0 0 79.333-4 140.667-27.667 184-71s67-104.667 71-184c0 0 0 0 0 0 2-33.333 3-93.667 3-181z" />
<glyph unicode="&#xe6ba;" glyph-name="uniE6BA" d="M352 331c0 0 0 3 0 3s193 0 193 0c-1.333 22.667-5 40.167-11 52.5s-9.667 18.5-11 18.5c0 0 0 0 0 0s-167 0-167 0c2 43.333 3.667 86.667 5 130 0 0 0 0 0 0s4 97 4 97c0 0 159 0 159 0 0 3.333-1 14.667-3 34s-7.333 30.667-16 34c0 0 0 0 0 0s-280 0-280 0c0.667 2.667 4.667 18.833 12 48.5s16.667 55.833 28 78.5c0 0 0 0 0 0-3.333 2.667-18.667-1.167-46-11.5s-49.333-42.167-66-95.5c0 0 0 0 0 0-15.333-56-31-100.333-47-133 0 0 0 0 0 0s-29-58-29-58c-1.333-6 2.667-8.333 12-7s17.667 3.667 25 7c0 0 0 0 0 0 8 2 21.5 10.167 40.5 24.5s33.5 40.5 43.5 78.5c0 0 0 0 0 0s87 0 87 0c0 0 2-122 2-122 1.333-52 1.667-87 1-105 0 0 0 0 0 0s-178 0-178 0c-12.667-10.667-21.5-24.833-26.5-42.5s-7.5-27.167-7.5-28.5c0 0 0 0 0 0s204 0 204 0c-4.667-29.333-10.667-59.5-18-90.5s-16-56.833-26-77.5c0 0 0 0 0 0-14.667-29.333-32.333-60.333-53-93s-59.667-72.333-117-119c0 0 0 0 0 0-2-0.667-2.667-2.833-2-6.5s15-4.5 43-2.5c0 0 0 0 0 0 30 1.333 58.5 8.667 85.5 22s50.5 39 70.5 77c0 0 0 0 0 0 10.667 21.333 21 44.5 31 69.5s19.333 50.833 28 77.5c0 0 0 0 0 0s168-194 168-194c1.333 1.333 4.333 12.5 9 33.5s3.333 46.167-4 75.5c0 0 0 0 0 0s-124 139-124 139c0 0-42-31-42-31 12 42 19.667 81 23 117 0 0 0 0 0 0zM960 714c0 0-375 0-375 0s0-669 0-669c0 0 70 0 70 0s29-80 29-80c0 0 122 80 122 80s154 0 154 0c0 0 0 669 0 669zM887 639c0 0 0-522 0-522s-80 0-80 0c0 0-99-66-99-66s-24 66-24 66c0 0-25 0-25 0s0 522 0 522c0 0 228 0 228 0z" />
<glyph unicode="&#xe6c4;" glyph-name="uniE6C4" d="M729 399c0 0 0 0 0 0-6.667 1.333-12.833 3.5-18.5 6.5s-7.167 8.5-4.5 16.5c0 0 0 0 0 0 7.333 18 11.167 35.5 11.5 52.5s-3.167 31.167-10.5 42.5c0 0 0 0 0 0-15.333 20-39.5 28.5-72.5 25.5s-72.167-13.833-117.5-32.5c0 0 0 0 0 0-1.333-1.333-5.667-2.667-13-4s-10 3-8 13c0 0 0 0 0 0 7.333 22.667 10.167 42.667 8.5 60s-7.833 31.667-18.5 43c0 0 0 0 0 0-26 23.333-66.333 24.5-121 3.5s-111-59.5-169-115.5c0 0 0 0 0 0-42-42-74.5-84-97.5-126s-34.5-82-34.5-120c0 0 0 0 0 0 4-72.667 43-129.333 117-170s158.667-61.333 254-62c0 0 0 0 0 0 122 3.333 218.167 31 288.5 83s106.167 107 107.5 165c0 0 0 0 0 0-1.333 33.333-12 59.667-32 79s-43.333 32.667-70 40zM436 83c0 0 0 0 0 0-75.333-6-139.667 4.833-193 32.5s-83.333 65.833-90 114.5c0 0 0 0 0 0-2.667 48.667 19.333 91.667 66 129s107.333 60.333 182 69c0 0 0 0 0 0 75.333 6 139.667-4.833 193-32.5s83.333-65.833 90-114.5c0 0 0 0 0 0 2.667-48.667-19.333-91.667-66-129s-107.333-60.333-182-69zM898 661c0 0 0 0 0 0-31.333 31.333-67.167 52.833-107.5 64.5s-81.5 13.5-123.5 5.5c0 0 0 0 0 0s0 0 0 0c-9.333-2-16.667-6.667-22-14s-6.833-15.667-4.5-25c2.333-9.333 7.333-16.333 15-21s16.5-6 26.5-4c0 0 0 0 0 0 29.333 5.333 58.5 3.833 87.5-4.5s54.333-23.667 76-46c21.667-22.333 35.333-47.5 41-75.5s4.167-55.333-4.5-82c0 0 0 0 0 0s0 0 0 0c-3.333-9.333-2.833-17.833 1.5-25.5s11.167-12.833 20.5-15.5c9.333-2.667 18.167-2.167 26.5 1.5s14.167 10.167 17.5 19.5c0 0 0 0 0 0s0 0 0 0c13.333 38 15.833 76.5 7.5 115.5s-27.5 74.5-57.5 106.5zM808 579c0 0 0 0 0 0-14.667 15.333-31.833 26-51.5 32s-39.833 7-60.5 3c0 0 0 0 0 0-8-2-14.167-6.333-18.5-13s-5.667-14-4-22c1.667-8 5.833-14 12.5-18s14.333-5.333 23-4c0 0 0 0 0 0s0 0 0 0c10 2 19.833 1.5 29.5-1.5s18-8.333 25-16c7-7.667 11.5-16.167 13.5-25.5s1.333-18.667-2-28c0 0 0 0 0 0s0 0 0 0c-2-8-1.167-15.5 2.5-22.5s9.5-11.667 17.5-14c8-2.333 15.5-1.833 22.5 1.5s11.833 9 14.5 17c0 0 0 0 0 0 6.667 18.667 8 37.833 4 57.5s-13.333 37.5-28 53.5zM485 392c0 0 0 0 0 0-37.333 8.667-73.167 5.667-107.5-9s-59.833-38-76.5-70c0 0 0 0 0 0-15.333-32.667-16.5-63.667-3.5-93s37.833-50.333 74.5-63c0 0 0 0 0 0 39.333-11.333 77.333-9.333 114 6s63.667 40.333 81 75c0 0 0 0 0 0 14.667 34 14.167 65.5-1.5 94.5s-42.5 48.833-80.5 59.5zM430 233c0 0 0 0 0 0-8-11.333-18.5-19-31.5-23s-25.5-3.333-37.5 2c-12 5.333-19.5 13.5-22.5 24.5s-0.667 22 7 33c7.667 11 17.833 18.5 30.5 22.5s25 3.667 37-1c12-4.667 19.667-12.5 23-23.5s1.333-22.5-6-34.5zM478 293c0 0 0 0 0 0-2.667-4.667-6.5-7.833-11.5-9.5s-9.833-1.667-14.5 0c-4.667 1.667-7.5 4.667-8.5 9s-0.167 8.667 2.5 13c2.667 4.333 6.333 7.333 11 9s9.333 1.667 14 0c4.667-1.667 7.667-4.667 9-9s0.667-8.5-2-12.5z" />
<glyph unicode="&#xe6c6;" glyph-name="uniE6C6" horiz-adv-x="1042" d="M630 380c0 0-68 109-68 109-38.667 2.667-84-0.333-136-9 0 0 0 0 0 0s120-217 120-217c0 0 478 131 478 131-5.333 12.667-13 24.667-23 36 0 0 0 0 0 0-25.333 29.333-62.333 55.667-111 79s-102.667 41-162 53c0 0 0 0 0 0s0 0 0 0c-57.333 13.333-116.833 20.167-178.5 20.5s-124.167-4.5-187.5-14.5c0 0 0 0 0 0s-14-2-14-2c0 0-42 78-42 78-41.333-5.333-80-13.667-116-25 0 0 0 0 0 0s40-84 40-84c-66-26-118.667-61.333-158-106 0 0 0 0 0 0-32.667-36.667-54.5-76.833-65.5-120.5s-8.833-88.167 6.5-133.5c0 0 0 0 0 0 6-18 14.333-35 25-51 0 0 0 0 0 0s478 131 478 131c0 0-133 246-133 246s14 2 14 2c106.667 17.333 191.667 16.167 255-3.5s110.667-46.167 142-79.5c0 0 0 0 0 0s-164-40-164-40zM338 309c0 0-163-39-163-39-8.667 34-7.167 68.167 4.5 102.5s40.167 64.167 85.5 89.5c0 0 0 0 0 0s73-153 73-153z" />
<glyph unicode="&#xe6d8;" glyph-name="uniE6D8" d="M512-128c0 0 0 0 0 0-144.667 4-265.167 54.167-361.5 150.5s-146.5 216.833-150.5 361.5c0 0 0 0 0 0 4 144.667 54.167 265.167 150.5 361.5s216.833 146.5 361.5 150.5c0 0 0 0 0 0 144.667-4 265.167-54.167 361.5-150.5s146.5-216.833 150.5-361.5c0 0 0 0 0 0-4-144.667-54.167-265.167-150.5-361.5s-216.833-146.5-361.5-150.5zM944 314c0 0 0 0 0 0-9.333 4-39.5 10.333-90.5 19s-111.833 8.667-182.5 0c0 0 0 0 0 0 28.667-80.667 49.5-149.167 62.5-205.5s20.5-91.833 22.5-106.5c0 0 0 0 0 0 50 33.333 91.167 75.167 123.5 125.5s53.833 106.167 64.5 167.5zM683-19c0 0 0 0 0 0-3.333 20.667-12.167 60.833-26.5 120.5s-36.5 129.833-66.5 210.5c0 0 0 0 0 0s-3-1-3-1c-122-48-209.167-102.167-261.5-162.5s-79.5-97.167-81.5-110.5c0 0 0 0 0 0 37.333-28.667 78.667-51.167 124-67.5s93.333-24.5 144-24.5c0 0 0 0 0 0 60.667 0.667 117.667 12.333 171 35zM187 91c0 0 0 0 0 0 5.333 14.667 37.667 55.667 97 123s145.667 122.667 259 166c0 0 0 0 0 0s17 5 17 5c-11.333 24.667-23.333 49.333-36 74 0 0 0 0 0 0-112.667-31.333-212.333-50-299-56s-136.667-8-150-6c0 0 0 0 0 0s0-14 0-14c0-56 9.833-108.833 29.5-158.5s47.167-94.167 82.5-133.5zM84 473c0 0 0 0 0 0 12.667-1.333 57 0.667 133 6s166.333 21 271 47c0 0 0 0 0 0-37.333 66-71.833 122.333-103.5 169s-51.167 74.667-58.5 84c0 0 0 0 0 0-62-29.333-114.167-70.5-156.5-123.5s-70.833-113.833-85.5-182.5zM410 809c0 0 0 0 0 0 7.333-10 27-38.5 59-85.5s66.667-103.833 104-170.5c0 0 0 0 0 0 76.667 31.333 133.167 63.5 169.5 96.5s56.167 53.167 59.5 60.5c0 0 0 0 0 0-38.667 34.667-82.667 61.667-132 81s-102 29.333-158 30c0 0 0 0 0 0-35.333 0-69.333-4-102-12zM851 660c0 0 0 0 0 0-4.667-8.667-26.5-30.833-65.5-66.5s-98.833-71.167-179.5-106.5c0 0 0 0 0 0 10.667-20.667 20.333-41.667 29-63 0 0 0 0 0 0s10-22 10-22c75.333 7.333 142.333 7.5 201 0.5s93-12.167 103-15.5c0 0 0 0 0 0-0.667 52-9.5 101.167-26.5 147.5s-40.833 88.167-71.5 125.5z" />
<glyph unicode="&#xe6fd;" glyph-name="uniE6FD" d="M499 473c0 0 0 0 0 0 0-31.333-12.167-58.333-36.5-81s-53.333-34-87-34c-33.667 0-62.667 11.333-87 34s-36.5 49.833-36.5 81.5c0 31.667 12.167 58.833 36.5 81.5s53.333 34 87 34c33.667 0 62.667-11.333 87-34s36.5-50 36.5-82zM786 473c0 0 0 0 0 0 0-31.333-12-58.333-36-81s-53.167-34-87.5-34c-34.333 0-63.5 11.333-87.5 34s-36 49.833-36 81.5c0 31.667 12 58.833 36 81.5s53.167 34 87.5 34c34.333 0 63.5-11.333 87.5-34s36-50 36-82zM914 370c0 0 0 0 0 0s0 381 0 381c0 33.333-6 57-18 71s-33 21-63 21c0 0 0 0 0 0s-636 0-636 0c-31.333 0-52.667-6.5-64-19.5s-17-37.167-17-72.5c0 0 0 0 0 0s0-384 0-384c16.667-8.667 33.667-16.333 51-23s32.667-12 46-16c13.333-4 28.667-7.667 46-11 0 0 0 0 0 0s41-6 41-6c9.333-1.333 22.667-2 40-2 0 0 0 0 0 0s33 0 33 0c0 0 58 2 58 2 26 0 44-5.333 54-16 0 0 0 0 0 0s6-5 6-5c10-9.333 21.667-19 35-29 0 0 0 0 0 0 2.667 34.667 25 51.333 67 50 0 0 0 0 0 0s46-2 46-2c0 0 26-1 26-1 12.667 0 22.667 0.333 30 1 0 0 0 0 0 0s31 2 31 2c13.333 1.333 25 3 35 5 0 0 0 0 0 0s35 8 35 8c14 3.333 26.833 7.167 38.5 11.5s24.5 9.333 38.5 15c14 5.667 27.667 12.167 41 19.5zM1007 373c0 0 0 0 0 0-46-56.667-116.667-104.667-212-144 0 0 0 0 0 0 32-108.667 27.667-197.333-13-266 0 0 0 0 0 0-25.333-42.667-60.333-70.667-105-84 0 0 0 0 0 0-39.333-12-74-9.333-104 8 0 0 0 0 0 0-32.667 20-48.333 51.333-47 94 0 0 0 0 0 0s0 187 0 187c0 0-28 6-28 6s0-193 0-193c1.333-43.333-14.667-74.667-48-94 0 0 0 0 0 0-30-17.333-64.667-20-104-8 0 0 0 0 0 0-44.667 13.333-79.333 42-104 86 0 0 0 0 0 0-40 68-44.333 156-13 264 0 0 0 0 0 0-95.333 39.333-166 87.333-212 144 0 0 0 0 0 0-10 14-11 26-3 36s19.667 10 35 0c0 0 0 0 0 0s6-4 6-4c2.667-2 4.667-3.667 6-5 0 0 0 0 0 0s0 397 0 397c0 27.333 9 50.667 27 70s39.667 29 65 29c0 0 0 0 0 0s718 0 718 0c26 0 47.833-9.667 65.5-29s26.5-42.667 26.5-70c0 0 0 0 0 0s0-397 0-397c0 0 12 9 12 9 15.333 10 27 10 35 0s7-22-3-36z" />
<glyph unicode="&#xe719;" glyph-name="uniE719" d="M2 317c0 0 57 176 57 176s453-580 453-580c0 0-496 360-496 360-6.667 4.667-11.333 11.167-14 19.5s-2.667 16.5 0 24.5c0 0 0 0 0 0zM512-87c0 0-189 580-189 580s378 0 378 0c0 0-189-580-189-580zM210 842c0 0 0 0 0 0s113-349 113-349c0 0-264 0-264 0s114 349 114 349c2.667 8.667 8.833 13 18.5 13s15.833-4.333 18.5-13zM512-87c0 0 453 580 453 580s57-176 57-176c2.667-8 2.667-16.167 0-24.5s-7.333-14.833-14-19.5c0 0 0 0 0 0s-496-360-496-360zM851 842c0 0 114-349 114-349s-264 0-264 0c0 0 113 349 113 349 2.667 8.667 8.833 13 18.5 13s15.833-4.333 18.5-13c0 0 0 0 0 0z" />
<glyph unicode="&#xe72a;" glyph-name="uniE72A" d="M429 648c0 0 83 0 83 0s0-248 0-248c0 0-83 0-83 0s0 248 0 248zM657 648c0 0 82 0 82 0s0-248 0-248c0 0-82 0-82 0s0 248 0 248zM512 214c0 0 227 0 227 0s145 145 145 145c0 0 0 454 0 454s-682 0-682 0c0 0 0-599 0-599s186 0 186 0c0 0 0-124 0-124s124 124 124 124zM119 896c0 0 848 0 848 0s0-579 0-579c0 0-248-248-248-248s-186 0-186 0c0 0-124-124-124-124s-124 0-124 0c0 0 0 124 0 124s-228 0-228 0c0 0 0 662 0 662s62 165 62 165z" />
<glyph unicode="&#xe735;" glyph-name="uniE735" d="M929 423c0 0 0 0 0 0s0-113 0-113c-38.667-8.667-76.667-13-114-13 0 0 0 0 0 0-24.667-52-56.167-103.667-94.5-155s-72.833-92.333-103.5-123c-30.667-30.667-55-51-73-61 0 0 0 0 0 0-30.667-16.667-61.667-16-93 2 0 0 0 0 0 0-10.667 6.667-22.167 15-34.5 25s-28.5 25.833-48.5 47.5c-20 21.667-39.5 46.167-58.5 73.5s-39.5 62.333-61.5 105c-22 42.667-42 89.167-60 139.5s-35.333 110.333-52 180c-16.667 69.667-30.333 143.833-41 222.5 0 0 0 0 0 0s162 0 162 0c10-82.667 23.333-158.5 40-227.5s36.5-129.5 59.5-181.5c23-52 46.167-96.833 69.5-134.5s50-74.833 80-111.5c0 0 0 0 0 0 64.667 64.667 119.333 142 164 232 0 0 0 0 0 0-54 27.333-96.333 69.333-127 126s-46 120-46 190c0 0 0 0 0 0 0 73.333 19.667 133.333 59 180s93.167 70 161.5 70c68.333 0 120.667-20.167 157-60.5s54.5-96.833 54.5-169.5c0 0 0 0 0 0 0-60.667-11.333-115.333-34-164 0 0 0 0 0 0s-11-1-11-1c-4.667-1.333-13.333-2-26-2s-24.667 1.167-36 3.5c-11.333 2.333-23.167 7.333-35.5 15s-21.833 17.5-28.5 29.5c0 0 0 0 0 0 11.333 39.333 17 74.333 17 105 0 0 0 0 0 0 0 33.333-5.5 58.5-16.5 75.5s-26.333 25.5-46 25.5c-19.667 0-35.5-9.333-47.5-28s-18-45.333-18-80c0 0 0 0 0 0 0-71.333 20-127.5 60-168.5s90.667-61.5 152-61.5c0 0 0 0 0 0 24 0 47.333 2.667 70 8z" />
<glyph unicode="&#xe736;" glyph-name="uniE736" d="M874 812c0 0-127-125-127-125 10.667-21.333 16-47.333 16-78 0 0 0 0 0 0-0.667-45.333-11.667-81.333-33-108s-45.667-49.667-73-69c0 0 0 0 0 0-8.667-8-16.667-16.833-24-26.5s-11-21.167-11-34.5c0-13.333 3.5-24.333 10.5-33s14.167-15.667 21.5-21c0 0 0 0 0 0s46-35 46-35c28.667-22 53.333-46 74-72s31.667-60 33-102c0 0 0 0 0 0-0.667-61.333-29.167-115.333-85.5-162s-139.5-71.333-249.5-74c0 0 0 0 0 0-91.333 1.333-159.667 19.5-205 54.5s-68 76.167-68 123.5c0 0 0 0 0 0 0 23.333 7.167 49 21.5 77s39.833 53.333 76.5 76c0 0 0 0 0 0 41.333 22.667 84.667 37.5 130 44.5s83 11.167 113 12.5c0 0 0 0 0 0-9.333 10.667-18 22.667-26 36s-12 29.667-12 49c0 0 0 0 0 0 0 10 1.167 18.667 3.5 26s5.167 14.667 8.5 22c0 0 0 0 0 0-14-1.333-27.333-2-40-2 0 0 0 0 0 0-68 2-120.167 22.5-156.5 61.5s-54.5 83.833-54.5 134.5c0 0 0 0 0 0 0 5.333 0.333 11 1 17 0 0 0 0 0 0s-199 0-199 0c0 0 295 292 295 292s599 0 599 0c0 0-49-49-49-49s0-84 0-84c11.333-6.667 17.333-17 18-31 0 0 0 0 0 0s0-290 0-290c0-10-3.5-18.5-10.5-25.5s-15.5-10.5-25.5-10.5c-10 0-18.5 3.5-25.5 10.5s-10.5 15.5-10.5 25.5c0 0 0 0 0 0s0 290 0 290c0.667 14 6.667 24.333 18 31 0 0 0 0 0 0s0 49 0 49zM583 224c0 0 0 0 0 0-4.667 0.667-9.333 1-14 1 0 0 0 0 0 0s-15 0-15 0c-7.333 0-24.333-1.167-51-3.5s-54.333-7.833-83-16.5c0 0 0 0 0 0-16.667-4-38.333-15.5-65-34.5s-41.333-50.167-44-93.5c0 0 0 0 0 0 0.667-45.333 21-81.833 61-109.5s94.333-42.167 163-43.5c0 0 0 0 0 0 60.667 1.333 106.833 14.333 138.5 39s47.5 56.667 47.5 96c0 0 0 0 0 0 0.667 30.667-10.167 57.667-32.5 81s-57.5 51.333-105.5 84zM620 461c0 0 0 0 0 0 14 14.667 22.833 30.5 26.5 47.5s5.5 31.5 5.5 43.5c0 0 0 0 0 0-0.667 48.667-14.333 98-41 148s-66.333 77-119 81c0 0 0 0 0 0-17.333 0-34-3.667-50-11s-29.167-17.5-39.5-30.5c-10.333-13-17.667-27.5-22-43.5s-6.167-32-5.5-48c0 0 0 0 0 0-0.667-46 12-93.5 38-142.5s66-75.5 120-79.5c0 0 0 0 0 0 16.667 0 32.667 3.167 48 9.5s28.333 14.833 39 25.5z" />
<glyph unicode="&#xe741;" glyph-name="uniE741" d="M357 678c0 0 94-163 94-163-4-6.667-53-93.667-147-261 0 0 0 0 0 0-10-17.333-22.333-26-37-26 0 0 0 0 0 0s-137 0-137 0c-8 0-13.833 3.167-17.5 9.5s-3.5 13.167 0.5 20.5c0 0 0 0 0 0s144 256 144 256c0.667 0 0.667 0.333 0 1 0 0 0 0 0 0s-92 159-92 159c-4.667 8.667-5 15.833-1 21.5s10.333 8.5 19 8.5c0 0 0 0 0 0s136 0 136 0c15.333 0 28-8.667 38-26 0 0 0 0 0 0zM911 882c0 0 0 0 0 0 4.667-6 4.667-13 0-21 0 0 0 0 0 0s-301-534-301-534c0 0 192-352 192-352 4-8 4.167-15 0.5-21s-9.833-9-18.5-9c0 0 0 0 0 0s-137 0-137 0c-16 0-28.333 8.667-37 26 0 0 0 0 0 0s-194 355-194 355c0 0 303 539 303 539 10 16.667 22.333 25 37 25 0 0 0 0 0 0s138 0 138 0c8 0 13.667-2.667 17-8z" />
<glyph unicode="&#xe752;" glyph-name="uniE752" horiz-adv-x="1171" d="M1035 449c0 0-6 6-6 6 42-17.333 76-45 102-83s39-80.333 39-127c0 0 0 0 0 0 0-62.667-22.5-116.167-67.5-160.5s-99.167-66.5-162.5-66.5c0 0 0 0 0 0-1.333 0-3.5-0.833-6.5-2.5s-5.167-2.5-6.5-2.5c0 0 0 0 0 0s-695 0-695 0c-64.667 3.333-119.5 27-164.5 71s-67.5 97.667-67.5 161c0 0 0 0 0 0 0 41.333 10.5 79.833 31.5 115.5s48.833 63.833 83.5 84.5c0 0 0 0 0 0-4 14.667-6 30-6 46 0 0 0 0 0 0 0 44 15.5 81.5 46.5 112.5s68.833 46.5 113.5 46.5c0 0 0 0 0 0 36 0 68.667-11 98-33 0 0 0 0 0 0 28.667 58.667 71.167 105.833 127.5 141.5s118.5 53.5 186.5 53.5c0 0 0 0 0 0 63.333 0 121.667-15.333 175-46s95.5-72.333 126.5-125c31-52.667 46.5-110 46.5-172 0 0 0 0 0 0 0-2 1-5.333 3-10s3-8 3-10c0 0 0 0 0 0zM267 303c0 0 0 0 0 0 0-46.667 16-83.5 48-110.5s71.667-40.5 119-40.5c0 0 0 0 0 0 52.667 0 98.333 19 137 57 0 0 0 0 0 0-6 7.333-15 18-27 32 0 0 0 0 0 0s-25 29-25 29c-25.333-24.667-52.667-37-82-37 0 0 0 0 0 0-20.667 0-38.333 6.333-53 19s-22 29.167-22 49.5c0 20.333 7.333 37 22 50s32 19.5 52 19.5c0 0 0 0 0 0 16.667 0 32.667-4 48-12s29.333-18.5 42-31.5c12.667-13 25.167-27.333 37.5-43s25.333-31.333 39-47c13.667-15.667 28.333-30 44-43s34.167-23.5 55.5-31.5c21.333-8 44.333-12 69-12 0 0 0 0 0 0 46.667 0 85.833 13.667 117.5 41s47.5 63.833 47.5 109.5c0 45.667-16 82-48 109s-71.333 40.5-118 40.5c0 0 0 0 0 0-54.667 0-100.667-18.333-138-55 0 0 0 0 0 0s53-62 53-62c25.333 24.667 52.333 37 81 37 0 0 0 0 0 0 20 0 37.667-6.333 53-19s23-28.667 23-48c0 0 0 0 0 0 0-22-7.167-39.5-21.5-52.5s-32.167-19.5-53.5-19.5c0 0 0 0 0 0-16.667 0-32.5 4-47.5 12s-28.667 18.5-41 31.5c-12.333 13-24.833 27.333-37.5 43s-25.833 31.333-39.5 47c-13.667 15.667-28.333 29.833-44 42.5s-34.167 23-55.5 31c-21.333 8-44 12-68 12 0 0 0 0 0 0-46 0-85.333-13.333-118-40s-49-62.667-49-108z" />
<glyph unicode="&#xe761;" glyph-name="uniE761" horiz-adv-x="1317" d="M862 79c0 0 0 0 0 0 0-5.333-2.333-10.667-7-16 0 0 0 0 0 0-19.333-22.667-47.167-38.5-83.5-47.5s-73.833-13.5-112.5-13.5c0 0 0 0 0 0-96 0-162 20.333-198 61 0 0 0 0 0 0-4.667 5.333-7 11-7 17s2.333 11.333 7 16c4.667 4.667 10 7 16 7s12-2 18-6c0 0 0 0 0 0 22-18.667 45.833-31.333 71.5-38s56-10 91-10c35 0 65.5 3.333 91.5 10s50.333 19.333 73 38c0 0 0 0 0 0 5.333 4 11.167 6 17.5 6s11.667-2.333 16-7c4.333-4.667 6.5-10.333 6.5-17zM559 303c0 0 0 0 0 0 0-23.333-8.167-43.167-24.5-59.5s-36-24.5-59-24.5c-23 0-43 8.333-60 25s-25.5 36.5-25.5 59.5c0 23 8.333 42.833 25 59.5s36.667 25 60 25c23.333 0 43.167-8.333 59.5-25s24.5-36.667 24.5-60zM927 303c0 0 0 0 0 0 0-23.333-8.167-43.167-24.5-59.5s-36-24.5-59-24.5c-23 0-43 8.333-60 25s-25.5 36.5-25.5 59.5c0 23 8.333 42.833 25 59.5s36.667 25 60 25c23.333 0 43.167-8.333 59.5-25s24.5-36.667 24.5-60zM237 471c0 0 0 0 0 0-14.667 10.667-31.333 16-50 16 0 0 0 0 0 0-25.333 0-47-9-65-27s-27-39.667-27-65c0 0 0 0 0 0 0-27.333 10.333-50.333 31-69 0 0 0 0 0 0 20.667 54 57.667 102.333 111 145zM1154 237c0 0 0 0 0 0 0 84-47.333 157.667-142 221 0 0 0 0 0 0-48.667 32-104.167 56-166.5 72s-125.5 24-189.5 24c-64 0-127.167-8-189.5-24s-118.167-40-167.5-72c0 0 0 0 0 0-94.667-63.333-142-137.167-142-221.5s47.333-158.167 142-221.5c0 0 0 0 0 0 49.333-32 105.167-56 167.5-72s125.5-24 189.5-24c64 0 127.167 8 189.5 24s117.833 40 166.5 72c0 0 0 0 0 0 94.667 63.333 142 137.333 142 222zM1221 395c0 0 0 0 0 0 0 25.333-9 47-27 65s-39.333 27-64 27c0 0 0 0 0 0-19.333 0-37-5.667-53-17 0 0 0 0 0 0 52.667-43.333 89-92.333 109-147 0 0 0 0 0 0 23.333 18.667 35 42.667 35 72zM1139 781c0 0 0 0 0 0 0 18.667-6.667 34.667-20 48s-29.167 20-47.5 20c-18.333 0-34-6.667-47-20s-19.5-29.167-19.5-47.5c0-18.333 6.5-34.167 19.5-47.5s28.667-20 47-20c18.333 0 34.167 6.667 47.5 20s20 29 20 47zM1268 395c0 0 0 0 0 0 0-24.667-6.167-47.833-18.5-69.5s-29.167-38.833-50.5-51.5c0 0 0 0 0 0 2-13.333 3-25.667 3-37 0 0 0 0 0 0 0-53.333-15.167-102.167-45.5-146.5s-69.833-82.833-118.5-115.5c0 0 0 0 0 0-53.333-34.667-113.167-60.5-179.5-77.5s-133.833-25.5-202.5-25.5c-68.667 0-136.167 8.5-202.5 25.5s-126.167 42.833-179.5 77.5c0 0 0 0 0 0-49.333 32.667-89 71.167-119 115.5s-45 93.167-45 146.5c0 0 0 0 0 0 0 13.333 1 26.667 3 40 0 0 0 0 0 0-20 12.667-35.833 29.5-47.5 50.5s-17.5 43.5-17.5 67.5c0 0 0 0 0 0 0 38.667 13.5 71.5 40.5 98.5s59.833 40.5 98.5 40.5c0 0 0 0 0 0 34.667 0 65-11.333 91-34 0 0 0 0 0 0 100.667 64.667 222 98.333 364 101 0 0 0 0 0 0s83 261 83 261c3.333 10.667 10.667 16 22 16 0 0 0 0 0 0 9.333 0 82.667-17 220-51 0 0 0 0 0 0 9.333 20.667 23.5 37.333 42.5 50s39.833 19 62.5 19c0 0 0 0 0 0 31.333 0 58.167-11.167 80.5-33.5s33.5-49.333 33.5-81c0-31.667-11.167-58.667-33.5-81s-49.167-33.5-80.5-33.5c-31.333 0-58.167 11.167-80.5 33.5s-33.833 49.167-34.5 80.5c0 0 0 0 0 0s-194 45-194 45c0 0-71-225-71-225 132.667-6 247.667-40.333 345-103 0 0 0 0 0 0 26.667 24 57.667 36 93 36 0 0 0 0 0 0 38 0 70.5-13.5 97.5-40.5s40.5-59.833 40.5-98.5z" />
<glyph unicode="&#xe765;" glyph-name="uniE765" d="M1023 341c0 0 1 46 1 46 0 2.667 0 5.667 0 9 0 0 0 0 0 0s-1 31-1 31c-0.667 32-2.333 63-5 93 0 0 0 0 0 0-3.333 42-8.333 76-15 102 0 0 0 0 0 0-8 27.333-21.833 51-41.5 71s-43.167 33.667-70.5 41c0 0 0 0 0 0-33.333 8.667-95 14.667-185 18 0 0 0 0 0 0-43.333 1.333-87.667 2.333-133 3 0 0 0 0 0 0s-44 0-44 0c0 0-78 0-78 0-45.333-0.667-89.667-1.667-133-3 0 0 0 0 0 0-90-3.333-151.667-9.333-185-18 0 0 0 0 0 0-27.333-7.333-50.833-21-70.5-41s-33.5-43.667-41.5-71c0 0 0 0 0 0-6.667-26-11.667-60-15-102 0 0 0 0 0 0-2.667-30-4.333-61-5-93 0 0 0 0 0 0s-1-31-1-31c0 0 1-55 1-55 0.667-32 2.333-63 5-93 0 0 0 0 0 0 3.333-42 8.333-76 15-102 0 0 0 0 0 0 8-27.333 21.833-51 41.5-71s43.167-33.667 70.5-41c0 0 0 0 0 0 33.333-8.667 95-14.667 185-18 0 0 0 0 0 0 43.333-1.333 87.667-2.333 133-3 0 0 0 0 0 0s44 0 44 0c0 0 78 0 78 0 45.333 0.667 89.667 1.667 133 3 0 0 0 0 0 0 90 3.333 151.667 9.333 185 18 0 0 0 0 0 0 27.333 7.333 50.833 21 70.5 41s33.5 43.667 41.5 71c0 0 0 0 0 0 6.667 26 11.667 60 15 102 0 0 0 0 0 0 2.667 30 4.333 61 5 93 0 0 0 0 0 0zM941 424c0 0 1-43 1-43 0-2 0-4.667 0-8 0 0 0 0 0 0s-1-29-1-29c-0.667-30.667-2.333-60.333-5-89 0 0 0 0 0 0-2.667-37.333-7-66.333-13-87 0 0 0 0 0 0-3.333-14-9.833-25.667-19.5-35s-20.833-15.833-33.5-19.5c-12.667-3.667-33.333-6.667-62-9s-64-4.333-106-6c-42-1.667-85.333-2.833-130-3.5 0 0 0 0 0 0s-44 0-44 0c0 0-76 0-76 0-44.667 0.667-88 1.833-130 3.5s-77.333 3.667-106 6c-28.667 2.333-49.333 5.333-62 9s-23.833 10.167-33.5 19.5c-9.667 9.333-16.167 21-19.5 35 0 0 0 0 0 0-6 20.667-10.333 49.667-13 87 0 0 0 0 0 0-2.667 28.667-4.333 58.333-5 89 0 0 0 0 0 0s-1 29-1 29c0 0 1 51 1 51 0.667 30.667 2.333 60.333 5 89 0 0 0 0 0 0 2.667 37.333 7 66.333 13 87 0 0 0 0 0 0 3.333 14 9.833 25.667 19.5 35s20.833 15.833 33.5 19.5c12.667 3.667 33.333 6.667 62 9s64 4.333 106 6c42 1.667 85.333 2.833 130 3.5 0 0 0 0 0 0s44 0 44 0c0 0 76 0 76 0 44.667-0.667 88-1.833 130-3.5s77.333-3.667 106-6c28.667-2.333 49.333-5.333 62-9s23.833-10.167 33.5-19.5c9.667-9.333 16.167-21 19.5-35 0 0 0 0 0 0 6-20.667 10.333-49.667 13-87 0 0 0 0 0 0 2.667-28.667 4.333-58.333 5-89 0 0 0 0 0 0zM410 537c0 0 0-306 0-306s265 154 265 154c0 0-265 152-265 152z" />
<glyph unicode="&#xe783;" glyph-name="uniE783" horiz-adv-x="1025" d="M341 655c0 0 0 0 0 0s0-670 0-670c0-9.333-2.333-17.333-7-24s-11.667-10-21-10c0 0 0 0 0 0-6.667 0-13 1.333-19 4 0 0 0 0 0 0s-265 134-265 134c-8 3.333-14.833 9.5-20.5 18.5s-8.5 17.833-8.5 26.5c0 0 0 0 0 0s0 652 0 652c0 7.333 1.833 13.667 5.5 19s9.167 8 16.5 8c0 0 0 0 0 0 5.333 0 13.667-2.667 25-8 0 0 0 0 0 0s292-147 292-147c1.333-0.667 2-1.667 2-3zM378 255c0 0 0 343 0 343s305-495 305-495c0 0-305 152-305 152zM715 86c0 0 309 501 309 501s0-602 0-602c0-9.333-2.667-17-8-23s-12.5-9-21.5-9c-9 0-18.167 2.667-27.5 8 0 0 0 0 0 0s-252 125-252 125zM1022 656c0 0 0 0 0 0 0-1.333-48.667-81.333-146-240 0 0 0 0 0 0s-172-278-172-278c0 0-223 362-223 362s185 301 185 301c6.667 10.667 16.667 16 30 16 0 0 0 0 0 0 5.333 0 10.333-1 15-3 0 0 0 0 0 0s309-155 309-155c1.333-0.667 2-1.667 2-3z" />
<glyph unicode="&#xe7d1;" glyph-name="uniE7D1" d="M880 598c0 0 0 0 0 0s-359 0-359 0c0 0-117 112-117 112-2 1.333-4 2-6 2 0 0 0 0 0 0s-254 0-254 0c-9.333 0-17-3-23-9s-9-13.667-9-23c0 0 0 0 0 0s0-592 0-592c0-9.333 3-17 9-23s13.667-9 23-9c0 0 0 0 0 0s736 0 736 0c9.333 0 17 3 23 9s9 13.667 9 23c0 0 0 0 0 0s0 478 0 478c0 8.667-3 16-9 22s-13.667 9.333-23 10zM840 526c0 0 0-398 0-398s-656 0-656 0c0 0 0 512 0 512s189 0 189 0c0 0 119-114 119-114s348 0 348 0z" />
<glyph unicode="&#xe811;" glyph-name="uniE811" d="M904 563c0 0 0 0 0 0 0-38-13.667-70.667-41-98s-60.167-41-98.5-41c-38.333 0-71.167 13.667-98.5 41s-41 60.167-41 98.5c0 38.333 13.667 71.167 41 98.5s60.167 41 98.5 41c38.333 0 71.167-13.667 98.5-41s41-60.333 41-99zM464 140c0 0 0-1 0-1 0 40-13.833 73.833-41.5 101.5s-61.5 41.5-101.5 41.5c0 0 0 0 0 0-10 0-20.333-1-31-3 0 0 0 0 0 0s60-24 60-24c29.333-12 50.167-32.333 62.5-61s12.5-57.667 0.5-87c-12-29.333-32.333-50-61-62s-57.667-12-87 0c0 0 0 0 0 0s-70 28-70 28c12-23.333 29.333-41.833 52-55.5s47.333-20.5 74-20.5c0 0 0 0 0 0 40 0 73.833 13.833 101.5 41.5s41.5 61.5 41.5 101.5c0 0 0 0 0 0zM938 563c0 0 0 0 0 0 0 48-17 89-51 123s-75.167 51-123.5 51c-48.333 0-89.5-17-123.5-51s-51-75.167-51-123.5c0-48.333 17-89.333 51-123s75.167-50.5 123.5-50.5c48.333 0 89.5 16.833 123.5 50.5s51 74.833 51 123.5zM1024 563c0 0 0 0 0 0 0-72-25.5-133.333-76.5-184s-112.167-76-183.5-76c0 0 0 0 0 0s-250-182-250-182c-4.667-49.333-25.333-91-62-125s-80.333-51-131-51c0 0 0 0 0 0-46 0-86.667 14.5-122 43.5s-58 65.5-68 109.5c0 0 0 0 0 0s-131 53-131 53c0 0 0 245 0 245s222-90 222-90c30 18.667 63 28 99 28 0 0 0 0 0 0 5.333 0 12-0.333 20-1 0 0 0 0 0 0s162 232 162 232c1.333 71.333 27.333 132.167 78 182.5s111.667 75.5 183 75.5c71.333 0 132.5-25.5 183.5-76.5s76.5-112.167 76.5-183.5z" />
<glyph unicode="&#xe81d;" glyph-name="uniE81D" horiz-adv-x="1317" d="M448 112c0 0 0 0 0 0s9 138 9 138c0 0-9 299-9 299-0.667 3.333-2.167 6.333-4.5 9s-5.333 4-9 4c-3.667 0-6.833-1.333-9.5-4s-4-5.667-4-9c0 0 0 0 0 0s-8-299-8-299c0 0 8-138 8-138 0.667-4 2.167-7.167 4.5-9.5s5.167-3.5 8.5-3.5c0 0 0 0 0 0 8.667 0 13.333 4.333 14 13zM617 115c0 0 0 14 0 14s6 120 6 120c0 0-6 335-6 335 0 6-2.667 10.667-8 14 0 0 0 0 0 0-2.667 2-5.667 3-9 3s-6.333-1-9-3c0 0 0 0 0 0-5.333-3.333-8-8-8-14 0 0 0 0 0 0s0-3 0-3c0 0-6-331-6-331s6-136 6-136c0-3.333 1.333-6.333 4-9 0 0 0 0 0 0 3.333-4.667 7.333-7 12-7s8.833 1.5 12.5 4.5c3.667 3 5.5 7.167 5.5 12.5 0 0 0 0 0 0zM20 323c0 0 0 0 0 0s11-73 11-73c0 0-11-72-11-72-0.667-3.333-2.333-5-5-5s-4.333 1.667-5 5c0 0 0 0 0 0s-10 72-10 72c0 0 10 73 10 73 0.667 3.333 2.333 5 5 5s4.333-1.667 5-5zM69 368c0 0 0 0 0 0s15-118 15-118c0 0-15-116-15-116-0.667-3.333-2.667-5-6-5s-5 1.667-5 5c0 0 0 0 0 0s-13 116-13 116c0 0 13 118 13 118 0 3.333 1.667 5 5 5s5.333-1.667 6-5zM229 109c0 0 0 0 0 0zM122 390c0 0 0 0 0 0s14-140 14-140c0 0-14-136-14-136 0-4-2-6-6-6s-6.333 2-7 6c0 0 0 0 0 0s-12 136-12 136c0 0 12 140 12 140 0.667 4.667 3 7 7 7s6-2.333 6-7zM175 394c0 0 0 0 0 0s14-144 14-144c0 0-14-140-14-140-0.667-4.667-3.333-7-8-7s-7 2.333-7 7c0 0 0 0 0 0s-12 140-12 140c0 0 12 144 12 144 0 4.667 2.333 7 7 7s7.333-2.333 8-7zM229 383c0 0 0 0 0 0s12-133 12-133c0 0-12-141-12-141-0.667-6-3.667-9-9-9 0 0 0 0 0 0-2 0-4 0.833-6 2.5s-3 3.833-3 6.5c0 0 0 0 0 0s-11 141-11 141c0 0 11 133 11 133 0 2.667 1 4.833 3 6.5s4 2.5 6 2.5c0 0 0 0 0 0 5.333 0 8.333-3 9-9zM448 112c0 0 0 0 0 0zM283 467c0 0 0 0 0 0s12-217 12-217c0 0-12-141-12-141 0-2.667-1-5-3-7s-4.333-3-7-3c0 0 0 0 0 0-6 0-9.333 3.333-10 10 0 0 0 0 0 0s-10 141-10 141c0 0 10 217 10 217 0.667 6.667 4 10 10 10 0 0 0 0 0 0 2.667 0 5-1 7-3s3-4.333 3-7zM337 516c0 0 0 0 0 0s10-267 10-267c0 0-10-140-10-140 0-2.667-1.167-5.167-3.5-7.5s-4.833-3.5-7.5-3.5c0 0 0 0 0 0-7.333 0-11.333 3.667-12 11 0 0 0 0 0 0s-9 140-9 140c0 0 9 267 9 267 0.667 7.333 4.667 11 12 11 0 0 0 0 0 0 2.667 0 5.167-1 7.5-3s3.5-4.667 3.5-8zM393 539c0 0 0 0 0 0s10-289 10-289c0 0-10-139-10-139-1.333-8-5.667-12-13-12s-11.333 4-12 12c0 0 0 0 0 0s-9 139-9 139c0 0 9 289 9 289 0 3.333 1.167 6.167 3.5 8.5s5.167 3.5 8.5 3.5c3.333 0 6.167-1.167 8.5-3.5s3.833-5.167 4.5-8.5zM617 115c0 0 0 0 0 0zM503 541c0 0 0 0 0 0s9-291 9-291c0 0-9-137-9-137 0-4-1.333-7.333-4-10s-6-4-10-4c-4 0-7.333 1.333-10 4s-4 6-4 10c0 0 0 0 0 0s-8 137-8 137c0 0 8 291 8 291 0 4 1.333 7.333 4 10s6 4 10 4c4 0 7.333-1.333 10-4s4-6 4-10zM560 530c0 0 0 0 0 0s8-281 8-281c0 0-8-135-8-135 0-4-1.5-7.5-4.5-10.5s-6.667-4.5-11-4.5c-4.333 0-8 1.5-11 4.5s-4.5 6.5-4.5 10.5c0 0 0 0 0 0s-7 135-7 135c0 0 7 281 7 281 0 4.667 1.5 8.5 4.5 11.5s6.667 4.5 11 4.5c4.333 0 7.833-1.5 10.5-4.5s4.333-6.833 5-11.5zM673 614c0 0 8-365 8-365s-8-132-8-132c0-4.667-1.667-8.833-5-12.5s-7.5-5.5-12.5-5.5c-5 0-9.167 1.833-12.5 5.5s-5.333 7.833-6 12.5c0 0 0 0 0 0s-7 132-7 132c0 0 7 365 7 365 0.667 6 2.833 10.5 6.5 13.5s7.333 4.5 11 4.5c3.667 0 6.833-1 9.5-3 0 0 0 0 0 0 5.333-2.667 8.333-7.667 9-15 0 0 0 0 0 0zM1317 260c0 0 0 0 0 0 0-44.667-15.833-82.667-47.5-114s-69.833-47-114.5-47c0 0 0 0 0 0s-449 0-449 0c-5.333 0.667-9.667 2.667-13 6s-5 7.667-5 13c0 0 0 0 0 0s0 513 0 513c0 9.333 5.333 15.667 16 19 0 0 0 0 0 0 32.667 13.333 67 20 103 20 0 0 0 0 0 0 74.667 0 139.167-25.167 193.5-75.5s84.833-111.833 91.5-184.5c0 0 0 0 0 0 20 8 41 12 63 12 0 0 0 0 0 0 44.667 0 82.833-15.833 114.5-47.5s47.5-69.833 47.5-114.5z" />
<glyph unicode="&#xe848;" glyph-name="uniE848" d="M128 384c0 0 0 0 0 0 1.333-74.667 21.5-141.667 60.5-201s90.833-104.667 155.5-136c0 0 0 0 0 0s-183 489-183 489c-21.333-46.667-32.333-97.333-33-152zM771 403c0 0 0 0 0 0 0 22.667-3.333 42.5-10 59.5s-13.667 31.5-21 43.5c0 0 0 0 0 0-10.667 15.333-19.667 30-27 44s-11 28.667-11 44c0 0 0 0 0 0 0 17.333 6 32.5 18 45.5s27.333 19.833 46 20.5c0 0 0 0 0 0s5 0 5 0c-34 30.667-73.167 54.667-117.5 72s-91.5 26-141.5 26c0 0 0 0 0 0-68-0.667-129.667-16-185-46s-100.667-71-136-123c0 0 0 0 0 0s25 0 25 0c22 0 44 0.667 66 2 0 0 0 0 0 0s36 3 36 3c10.667-0.667 16.333-5.333 17-14s-4-14.333-14-17c0 0 0 0 0 0s-44-4-44-4c0 0 140-405 140-405s84 246 84 246c0 0-60 159-60 159s-40 4-40 4c-10.667 2-15.667 7.5-15 16.5s6.333 13.833 17 14.5c0 0 0 0 0 0s36-3 36-3c22.667-1.333 44.667-2 66-2s43 0.667 65 2c0 0 0 0 0 0s36 3 36 3c10.667-0.667 16.333-5.333 17-14s-4-14.333-14-17c0 0 0 0 0 0s-44-4-44-4c0 0 139-402 139-402s38 125 38 125c8.667 26 15.667 48.667 21 68s8 37 8 53zM637 36c0 0-118 315-118 315s-115-326-115-326c34-10 70-15 108-15 0 0 0 0 0 0 44.667 0 87.333 7 128 21 0 0 0 0 0 0s-3 5-3 5zM849 563c0 0 0 0 0 0 2-11.333 3-24 3-38 0 0 0 0 0 0 0-18.667-2.167-39-6.5-61s-12.167-46.333-23.5-73c0 0 0 0 0 0s-117-330-117-330c58 33.333 104.167 78 138.5 134s51.833 119 52.5 189c0 0 0 0 0 0-0.667 66-16.333 125.667-47 179zM512 896c0 0 0 0 0 0-145.333-3.333-266.167-53.167-362.5-149.5s-146.167-217.167-149.5-362.5c0 0 0 0 0 0 3.333-145.333 53.167-266.167 149.5-362.5s217.167-146.167 362.5-149.5c0 0 0 0 0 0 145.333 3.333 266.167 53.167 362.5 149.5s146.167 217.167 149.5 362.5c0 0 0 0 0 0-3.333 145.333-53.167 266.167-149.5 362.5s-217.167 146.167-362.5 149.5zM512-64c0 0 0 0 0 0-126.667 3.333-232.167 47.167-316.5 131.5s-128.167 189.833-131.5 316.5c0 0 0 0 0 0 3.333 126.667 47.167 232.167 131.5 316.5s189.833 128.167 316.5 131.5c0 0 0 0 0 0 126.667-3.333 232.167-47.167 316.5-131.5s128.167-189.833 131.5-316.5c0 0 0 0 0 0-3.333-126.667-47.167-232.167-131.5-316.5s-189.833-128.167-316.5-131.5z" />
<glyph unicode="&#xe87d;" glyph-name="uniE87D" d="M884 317c0 0 0 0 0 0 4 22.667 6 45.667 6 69 0 0 0 0 0 0 0 51.333-10 100.333-30 147 0 0 0 0 0 0-18.667 45.333-45.5 85.333-80.5 120s-75.167 61.667-120.5 81c0 0 0 0 0 0-46.667 20-95.667 30-147 30 0 0 0 0 0 0-24 0-47.667-2.333-71-7 0 0 0 0 0 0-33.333 17.333-68.333 26-105 26 0 0 0 0 0 0-30.667 0-59.5-5.667-86.5-17s-51-27.5-72-48.5c-21-21-37.167-45-48.5-72s-17-55.833-17-86.5c0 0 0 0 0 0 0-38.667 9.333-74.667 28-108 0 0 0 0 0 0-4-21.333-6-43-6-65 0 0 0 0 0 0 0-51.333 10-100.333 30-147 0 0 0 0 0 0 19.333-45.333 46.333-85.333 81-120s74.667-61.667 120-81c0 0 0 0 0 0 46.667-20 95.667-30 147-30 0 0 0 0 0 0 22 0 44 2 66 6 0 0 0 0 0 0 34-19.333 70.667-29 110-29 0 0 0 0 0 0 30 0 58.5 5.667 85.5 17s51.167 27.667 72.5 49c21.333 21.333 37.667 45.5 49 72.5s17 55.5 17 85.5c0 0 0 0 0 0 0 38.667-9.333 74.667-28 108zM796 101c0 0 0 0 0 0-14.667-14-31.167-24.833-49.5-32.5s-37.833-11.5-58.5-11.5c0 0 0 0 0 0-26 0-50.667 6.667-74 20 0 0 0 0 0 0s-23 12-23 12c0 0-25-4-25-4-18-3.333-36-5-54-5 0 0 0 0 0 0-41.333 0-81 8-119 24 0 0 0 0 0 0-36.667 15.333-69 37.167-97 65.5s-50 61.167-66 98.5c-16 37.333-24 76.667-24 118 0 0 0 0 0 0 0 17.333 1.667 35 5 53 0 0 0 0 0 0s4 25 4 25c0 0-12 22-12 22-12.667 22.667-19 47-19 73 0 0 0 0 0 0 0 20.667 3.833 40.167 11.5 58.5s18.667 34.667 33 49c14.333 14.333 30.667 25.333 49 33s37.833 11.5 58.5 11.5c0 0 0 0 0 0 24.667 0 48.333-6 71-18 0 0 0 0 0 0s22-12 22-12c0 0 25 5 25 5 19.333 4 38.667 6 58 6 0 0 0 0 0 0 41.333 0 80.667-8 118-24s70.167-38 98.5-66c28.333-28 50.333-60.667 66-98s23.5-76.667 23.5-118c0 0 0 0 0 0 0-18.667-1.667-37.333-5-56 0 0 0 0 0 0s-5-25-5-25c0 0 13-23 13-23 12.667-22.667 19-47 19-73 0 0 0 0 0 0 0-20.667-3.833-40.167-11.5-58.5s-18.5-34.833-32.5-49.5zM583 430c0 0 0 0 0 0s-88 19-88 19c-18 4-34.333 9.5-49 16.5s-22.167 18.333-22.5 34c-0.333 15.667 6 28.333 19 38s31.833 14.833 56.5 15.5c0 0 0 0 0 0 46-2.667 75.333-14 88-34s29.667-31.333 51-34c0 0 0 0 0 0 12.667 0 23.667 3.667 33 11s14.333 17.333 15 30c0 0 0 0 0 0-2.667 31.333-22.5 56.833-59.5 76.5s-77.167 29.833-120.5 30.5c0 0 0 0 0 0-47.333 0-89.5-10.833-126.5-32.5s-56.5-57.5-58.5-107.5c0 0 0 0 0 0-1.333-24.667 5.5-48.5 20.5-71.5s45.833-40.833 92.5-53.5c0 0 0 0 0 0s120-30 120-30c17.333-4.667 29.167-11.333 35.5-20s9.5-17.667 9.5-27c0 0 0 0 0 0 0-16-7.333-29.833-22-41.5s-35.667-17.833-63-18.5c0 0 0 0 0 0-50 3.333-81.333 17-94 41s-31.333 37.667-56 41c0 0 0 0 0 0-13.333 0-24-4-32-12s-12.333-18.333-13-31c0 0 0 0 0 0 0-26.667 15.667-52.167 47-76.5s80.667-37.167 148-38.5c0 0 0 0 0 0 63.333 0.667 111 14.167 143 40.5s48 60.833 48 103.5c0 0 0 0 0 0 0.667 27.333-7.5 53-24.5 77s-49.5 42-97.5 54z" />
<glyph unicode="&#xe8b2;" glyph-name="uniE8B2" d="M512 23c0 0 0 0 0 0-25.333 0.667-46.333 5.167-63 13.5s-31.667 17.5-45 27.5c0 0 0 0 0 0-10 7.333-19.667 13.667-29 19s-19.333 9-30 11c0 0 0 0 0 0-24 1.333-42 1.5-54 0.5s-24-2.5-36-4.5c0 0 0 0 0 0-2.667-0.667-5.167-0.333-7.5 1s-4.167 4-5.5 8c0 0 0 0 0 0-3.333 15.333-6 26-8 32s-4.333 9-7 9c0 0 0 0 0 0-28 4.667-50.333 10.167-67 16.5s-27 13.5-31 21.5c0 0 0 0 0 0-0.667 9.333 1.667 14 7 14 0 0 0 0 0 0 45.333 8 85.333 32 120 72 0 0 0 0 0 0 13.333 16 23.333 30.167 30 42.5s10.333 19.5 11 21.5c0 0 0 0 0 0 6.667 13.333 8 24.5 4 33.5s-11.333 16-22 21c-10.667 5-23 9.833-37 14.5 0 0 0 0 0 0-8 2.667-16 6.833-24 12.5s-11.667 12.833-11 21.5c0 0 0 0 0 0 1.333 6 5.667 10.833 13 14.5s16.667 5.167 28 4.5c0 0 0 0 0 0 14.667-7.333 27.667-11 39-11 0 0 0 0 0 0 7.333 0.667 12.667 1.833 16 3.5s5.333 2.833 6 3.5c0 0 0 0 0 0-2.667 38-3.833 72.333-3.5 103s4.167 55.667 11.5 75c0 0 0 0 0 0 28 54 62 88 102 102s71 20.333 93 19c0 0 0 0 0 0 22 1.333 53-5 93-19s74-48 102-102c0 0 0 0 0 0 7.333-19.333 11.167-44.333 11.5-75s-0.833-65-3.5-103c0 0 0 0 0 0 0.667-0.667 2.667-1.833 6-3.5s8.667-2.833 16-3.5c0 0 0 0 0 0 11.333 0 24.333 3.667 39 11 0 0 0 0 0 0 11.333 0.667 20.667-0.833 28-4.5s11.667-8.5 13-14.5c0 0 0 0 0 0 0.667-8.667-3-15.833-11-21.5s-16-9.833-24-12.5c0 0 0 0 0 0-14-4.667-26.333-9.5-37-14.5s-18-12-22-21c-4-9-2.667-20.167 4-33.5 0 0 0 0 0 0 0.667-2 4.333-9.167 11-21.5s16.667-26.5 30-42.5c0 0 0 0 0 0 34.667-40 74.667-64 120-72 0 0 0 0 0 0 5.333 0 7.667-4.667 7-14 0 0 0 0 0 0-4-8-14.333-15.167-31-21.5s-39-11.833-67-16.5c0 0 0 0 0 0-2.667 0-5-3-7-9s-4.667-16.667-8-32c0 0 0 0 0 0-1.333-4-3.167-6.667-5.5-8s-4.833-1.667-7.5-1c0 0 0 0 0 0-12 2-24 3.5-36 4.5s-30 0.833-54-0.5c0 0 0 0 0 0-10.667-2-20.667-5.667-30-11s-19-11.667-29-19c0 0 0 0 0 0-13.333-10-28.333-19.167-45-27.5s-37.667-12.833-63-13.5z" />
<glyph unicode="&#xe8ed;" glyph-name="uniE8ED" d="M718 648c0 0 0 0 0 0s21 111 21 111c2 8.667 0.333 16.167-5 22.5s-12 9.5-20 9.5c0 0 0 0 0 0s-407 0-407 0c-8.667 0-16-3.167-22-9.5s-9-13.167-9-20.5c0 0 0 0 0 0s0-630 0-630c0-2.667 1-2.667 3 0 0 0 0 0 0 0s167 201 167 201c8.667 10 15.833 16.333 21.5 19s14.833 4 27.5 4c0 0 0 0 0 0s136 0 136 0c8.667 0 15.833 2.833 21.5 8.5s9.167 11.5 10.5 17.5c0 0 0 0 0 0 9.333 49.333 16.333 85.667 21 109 0 0 0 0 0 0 1.333 8-0.833 15.5-6.5 22.5s-12.5 10.5-20.5 10.5c0 0 0 0 0 0s-168 0-168 0c-11.333 0-20.667 3.667-28 11s-11 16.667-11 28c0 0 0 0 0 0s0 24 0 24c0 10.667 3.667 19.5 11 26.5s16.667 10.5 28 10.5c0 0 0 0 0 0s197 0 197 0c7.333 0 14.167 2.667 20.5 8s10.167 11 11.5 17zM847 775c0 0 0 0 0 0-5.333-28-15.333-78.667-30-152 0 0 0 0 0 0s-40-200-40-200c-12-60-18.667-93.333-20-100 0 0 0 0 0 0s-5-18-5-18c-1.333-4-4-10.167-8-18.5s-8.667-14.667-14-19c-5.333-4.333-12.667-8.333-22-12s-20.333-5.5-33-5.5c0 0 0 0 0 0s-155 0-155 0c-4.667 0-9-2-13-6 0 0 0 0 0 0s-243-282-243-282c-8.667-10-19.833-15.667-33.5-17s-22.833 0-27.5 4c0 0 0 0 0 0-21.333 8-32 26.667-32 56 0 0 0 0 0 0s0 805 0 805c0 21.333 7.333 41 22 59s37.667 27 69 27c0 0 0 0 0 0s507 0 507 0c36 0 60.167-10.167 72.5-30.5s14.167-50.5 5.5-90.5zM777 423c0 0 70 352 70 352s-90-452-90-452c1.333 6.667 8 40 20 100 0 0 0 0 0 0z" />
<glyph unicode="&#xe94a;" glyph-name="uniE94A" d="M930 538c0 0 0 0 0 0-5.333 95.333-26.667 161.5-64 198.5s-58.667 54.5-64 52.5c0 0 0 0 0 0-70.667 28.667-167.5 43-290.5 43s-219.5-14.333-289.5-43c0 0 0 0 0 0-5.333 2-26.667-15.5-64-52.5s-58.667-103.167-64-198.5c0 0 0 0 0 0-5.333-122 1.833-240 21.5-354s82.833-188.667 189.5-224c0 0 0 0 0 0 40.667-10.667 78.333-17.667 113-21s66-4 94-2c0 0 0 0 0 0 51.333 4 90.5 10.667 117.5 20s40.833 14.667 41.5 16c0 0 0 0 0 0s-4 74-4 74c-1.333-1.333-16.833-5.167-46.5-11.5s-65.5-9.5-107.5-9.5c-42 0-80.333 6.167-115 18.5s-56 42.5-64 90.5c0 0 0 0 0 0-1.333 8.667-2 17.667-2 27 0 0 0 0 0 0 87.333-18.667 163.333-26.5 228-23.5s107.667 6.5 129 10.5c0 0 0 0 0 0 58 8 107.667 26 149 54s66 58.667 74 92c0 0 0 0 0 0 9.333 53.333 14.833 106.167 16.5 158.5s2.167 80.5 1.5 84.5zM780 287c0 0 0 0 0 0s-94 0-94 0c0 0 0 229 0 229-5.333 50-26.667 74.667-64 74s-58.667-30-64-88c0 0 0 0 0 0s0-125 0-125c0 0-92 0-92 0s0 125 0 125c-5.333 58-26.667 87.333-64 88s-58.667-24-64-74c0 0 0 0 0 0s0-229 0-229c0 0-94 0-94 0-1.333 118-1 200.167 1 246.5s14 80.833 36 103.5c0 0 0 0 0 0 28.667 29.333 63.833 43.833 105.5 43.5s75.833-18.833 102.5-55.5c0 0 0 0 0 0s23-39 23-39c0 0 23 39 23 39 26.667 36.667 61 55.167 103 55.5s77-14.167 105-43.5c0 0 0 0 0 0 22-22.667 34-57.167 36-103.5s2.333-128.5 1-246.5z" />
<glyph unicode="&#xea79;" glyph-name="uniEA79" d="M277 331c0 0-153-103-153-103s344-230 344-230c0 0 0 205 0 205s-191 128-191 128zM88 458c0 0 0-148 0-148s110 74 110 74c0 0-110 74-110 74zM556 204c0 0 0-206 0-206s345 230 345 230c0 0-154 103-154 103s-191-127-191-127zM357 384c0 0 155-104 155-104s155 104 155 104c0 0-155 104-155 104s-155-104-155-104zM123 540c0 0 154-103 154-103s191 128 191 128c0 0 0 205 0 205s-345-230-345-230zM936 458c0 0-110-74-110-74s110-74 110-74c0 0 0 148 0 148zM556 565c0 0 191-128 191-128s154 103 154 103c0 0-345 230-345 230s0-205 0-205zM1024 540c0 0 0 0 0 0s0-312 0-312c0-15.333-6.667-27.667-20-37 0 0 0 0 0 0s-467-312-467-312c-8-4.667-16.333-7-25-7s-17 2.333-25 7c0 0 0 0 0 0s-467 312-467 312c-13.333 9.333-20 21.667-20 37 0 0 0 0 0 0s0 312 0 312c0 15.333 6.667 27.667 20 37 0 0 0 0 0 0s467 312 467 312c8 4.667 16.333 7 25 7s17-2.333 25-7c0 0 0 0 0 0s467-312 467-312c13.333-9.333 20-21.667 20-37z" />
<glyph unicode="&#xeb2a;" glyph-name="uniEB2A" d="M958 640c0 0 0 0 0 0-32.667-14.667-67.667-24.333-105-29 0 0 0 0 0 0 19.333 11.333 35.833 25.667 49.5 43s24.167 36.667 31.5 58c0 0 0 0 0 0-36-21.333-75-36.333-117-45 0 0 0 0 0 0-16.667 18.667-36.5 33-59.5 43s-47.833 15-74.5 15c0 0 0 0 0 0-52-1.333-95.167-19.167-129.5-53.5s-52.167-77.5-53.5-129.5c0 0 0 0 0 0 0.667-14.667 2.333-28.667 5-42 0 0 0 0 0 0-76.667 4.667-147.333 23.833-212 57.5s-119.667 78.5-165 134.5c0 0 0 0 0 0-16-27.333-24.333-58-25-92 0 0 0 0 0 0 0.667-32 8.167-61.167 22.5-87.5s34.167-47.833 59.5-64.5c0 0 0 0 0 0-30.667 0.667-58.333 7.667-83 21 0 0 0 0 0 0 0 0.667 0 0.333 0-1 0 0 0 0 0 0 0.667-45.333 14.5-84.333 41.5-117s61.833-53.667 104.5-63c0 0 0 0 0 0-15.333-4-31.333-6-48-6 0 0 0 0 0 0-11.333 0-22.667 1-34 3 0 0 0 0 0 0 12-36.667 33.167-66.667 63.5-90s66.167-35.667 107.5-37c0 0 0 0 0 0-31.333-24.667-66.333-43.833-105-57.5s-79.667-20.5-123-20.5c0 0 0 0 0 0-14.667 0-29 0.667-43 2 0 0 0 0 0 0 40.667-26 84.667-46.167 132-60.5s96.667-21.5 148-21.5c0 0 0 0 0 0 169.333 6.667 298.333 63.333 387 170s133.333 223.667 134 351c0 0 0 0 0 0 0.667 8 0.667 16 0 24 0 0 0 0 0 0 36 26 66.333 57.667 91 95z" />
<glyph unicode="&#xeb32;" glyph-name="uniEB32" d="M980 852c0 0-936 0-936 0s0-936 0-936c0 0 936 0 936 0s0 936 0 936zM950 822c0 0 0-876 0-876s-876 0-876 0c0 0 0 876 0 876s876 0 876 0zM477 324c0 0 0-191 0-191s59 0 59 0c0 0 0 187 0 187s157 295 157 295c0 0-66 0-66 0s-101-202-101-202c0 0-18-37-18-37-5.333 14.667-10.667 27.333-16 38 0 0 0 0 0 0s-100 201-100 201c0 0-71 0-71 0s156-291 156-291z" />
<glyph unicode="&#xeb92;" glyph-name="uniEB92" d="M643 338c0 0 72-38 72-38 10.667-4.667 16.833-8.5 18.5-11.5s2-9.167 1-18.5c-1-9.333-4.167-20.167-9.5-32.5s-16-23.167-32-32.5c-16-9.333-29.333-14.667-40-16 0 0 0 0 0 0-7.333-2-17.667-2.667-31-2s-45 12-95 34c0 0 0 0 0 0-54 26.667-96 59.333-126 98s-46.667 61.667-50 69c0 0 0 0 0 0-4 4.667-11.333 17.5-22 38.5s-16.333 45.167-17 72.5c0 0 0 0 0 0 2 26 7.667 45.833 17 59.5s16.833 23 22.5 28c5.667 5 11.167 8.333 16.5 10s9.667 1.833 13 0.5c0 0 0 0 0 0s20 0 20 0c3.333 0.667 7.167 0.333 11.5-1s8.5-7.333 12.5-18c0 0 0 0 0 0s29-80 29-80c3.333-5.333 3.667-11.333 1-18 0 0 0 0 0 0s-12-18-12-18c0 0-16-18-16-18-3.333-2.667-5.833-5.5-7.5-8.5s-1-7.333 2-13c3-5.667 9.333-15.833 19-30.5s22.167-29.667 37.5-45c0 0 0 0 0 0 20-18.667 37.5-32 52.5-40s25.167-13.333 30.5-16c0 0 0 0 0 0 9.333-5.333 17-4.667 23 2 0 0 0 0 0 0s35 40 35 40c4 5.333 7.833 8 11.5 8s7.833-1 12.5-3c0 0 0 0 0 0zM512 811c0 0 0 0 0 0 120.667-3.333 221.167-45.167 301.5-125.5s122.167-180.833 125.5-301.5c0 0 0 0 0 0-3.333-120.667-45.167-221.167-125.5-301.5s-180.833-122.167-301.5-125.5c0 0 0 0 0 0-42 0.667-82.167 6.667-120.5 18s-74.167 27.333-107.5 48c0 0 0 0 0 0s-199-66-199-66c0 0 66 199 66 199-20.667 33.333-36.667 69.167-48 107.5s-17.333 78.5-18 120.5c0 0 0 0 0 0 3.333 120.667 45.167 221.167 125.5 301.5s180.833 122.167 301.5 125.5zM512 725c0 0 0 0 0 0-96.667-2-177.167-35.167-241.5-99.5s-97.5-144.833-99.5-241.5c0 0 0 0 0 0 0-36.667 5.333-71.667 16-105s26-64 46-92c0 0 0 0 0 0s-41-123-41-123c0 0 123 41 123 41 28-20 58.667-35.333 92-46s68.333-16 105-16c0 0 0 0 0 0 96.667 2 177.167 35.167 241.5 99.5s97.5 144.833 99.5 241.5c0 0 0 0 0 0-2 96.667-35.167 177.167-99.5 241.5s-144.833 97.5-241.5 99.5z" />
<glyph unicode="&#xebf4;" glyph-name="uniEBF4" d="M717 204c0 0 0 1 0 1 0 12-5.667 21.667-17 29 0 0 0 0 0 0-73.333 43.333-158.333 65-255 65 0 0 0 0 0 0-50.667 0-105.333-6.333-164-19 0 0 0 0 0 0-16-3.333-24-13.333-24-30 0 0 0 0 0 0 0-7.333 2.5-13.833 7.5-19.5s11.833-8.5 20.5-8.5c0 0 0 0 0 0 2 0 9 1.667 21 5 0 0 0 0 0 0 50 10 96.333 15 139 15 0 0 0 0 0 0 86 0 161.667-19.667 227-59 0 0 0 0 0 0 6.667-4 12.667-6 18-6 0 0 0 0 0 0 7.333 0 13.667 2.5 19 7.5s8 11.5 8 19.5c0 0 0 0 0 0zM772 327c0 0 0 0 0 0 0 15.333-6.667 27-20 35 0 0 0 0 0 0-90 54-194.333 81-313 81 0 0 0 0 0 0-58 0-115.667-8-173-24 0 0 0 0 0 0-18.667-4.667-28-17-28-37 0 0 0 0 0 0 0-9.333 3.333-17.333 10-24s15-10 25-10c0 0 0 0 0 0 2.667 0 9.667 1.667 21 5 0 0 0 0 0 0 46.667 12 94.333 18 143 18 0 0 0 0 0 0 106.667 0 199.667-23.333 279-70 0 0 0 0 0 0 9.333-5.333 16.667-8 22-8 0 0 0 0 0 0 9.333 0 17.333 3.333 24 10s10 14.667 10 24zM834 469c0 0 0 0 0 0 0 18-7.667 31.333-23 40 0 0 0 0 0 0-48 28-103.833 49.167-167.5 63.5s-129.167 21.5-196.5 21.5c0 0 0 0 0 0-77.333 0-146.667-9-208-27 0 0 0 0 0 0-8.667-2.667-15.833-7.5-21.5-14.5s-8.5-16.333-8.5-28c0-11.667 3.833-21.5 11.5-29.5s17.5-12 29.5-12c0 0 0 0 0 0 4 0 11.667 1.333 23 4 0 0 0 0 0 0 50.667 14.667 109 22 175 22 0 0 0 0 0 0 60.667 0 119.667-6.5 177-19.5s105.667-31.167 145-54.5c0 0 0 0 0 0 8-4.667 15.333-7 22-7 0 0 0 0 0 0 11.333 0 21.167 3.833 29.5 11.5s12.5 17.5 12.5 29.5zM951 384c0 0 0 0 0 0 0-79.333-19.667-152.667-59-220s-92.667-120.667-160-160c-67.333-39.333-140.667-59-220-59s-152.667 19.667-220 59c-67.333 39.333-120.667 92.667-160 160s-59 140.667-59 220c0 79.333 19.667 152.667 59 220s92.667 120.667 160 160c67.333 39.333 140.667 59 220 59s152.667-19.667 220-59c67.333-39.333 120.667-92.667 160-160s59-140.667 59-220z" />
<glyph unicode="&#xf163;" glyph-name="uniF163" d="M758 465c0 0 0 0 0 0 14 38 32.167 91 54.5 159s34.5 119.667 36.5 155c0 0 0 0 0 0 0 27.333-7.5 50.333-22.5 69s-36.5 28.333-64.5 29c0 0 0 0 0 0-46-9.333-86.5-55.667-121.5-139s-59.5-145.667-73.5-187c0 0 0 0 0 0-11.333 39.333-35.333 104-72 194s-76 140.333-118 151c0 0 0 0 0 0-30.667-0.667-53.5-10.667-68.5-30s-22.5-43.667-22.5-73c0 0 0 0 0 0 2-40 14.333-94.167 37-162.5s41.333-122.167 56-161.5c0 0 0 0 0 0-12.667 4.667-26 7.333-40 8 0 0 0 0 0 0-24.667-1.333-46.667-13-66-35s-29.667-45.333-31-70c0 0 0 0 0 0 0.667-9.333 2.667-19.333 6-30s6.667-20.333 10-29c0 0 0 0 0 0-36-10.667-62-28-78-52s-24-54.667-24-92c0 0 0 0 0 0 2-75.333 32.833-142.833 92.5-202.5s138.5-91.167 236.5-94.5c0 0 0 0 0 0 119.333 2.667 212.667 41.667 280 117s101.667 171.667 103 289c0 0 0 0 0 0 1.333 44-5 83-19 117s-44.333 57.333-91 70zM621 493c0 0 66 187 66 187 4.667 16 14.167 40.5 28.5 73.5s29.833 51.5 46.5 55.5c0 0 0 0 0 0 8-0.667 13.667-4.333 17-11s4.667-13.667 4-21c0 0 0 0 0 0-2.667-26.667-16.167-75.167-40.5-145.5s-42.167-120.5-53.5-150.5c0 0 0 0 0 0s-68 12-68 12zM349 799c0 0 0 0 0 0-0.667 18.667 6.667 29.333 22 32s38.667-39.333 70-126c0 0 0 0 0 0s69-200 69-200c-15.333 1.333-29 2.167-41 2.5s-21.667-1.5-29-5.5c0 0 0 0 0 0-13.333 34-31.333 83.5-54 148.5s-35 114.5-37 148.5zM344 408c0 0 0 0 0 0 31.333-7.333 61-40 89-98s43-97 45-117c0 0 0 0 0 0 0-5.333-2-10.333-6-15s-9-7.333-15-8c0 0 0 0 0 0-24.667 6-55.5 33.5-92.5 82.5s-57.5 86.833-61.5 113.5c0 0 0 0 0 0 0.667 8.667 5.5 17.667 14.5 27s17.833 14.333 26.5 15zM713 35c0 0 0 0 0 0-59.333-64-132.667-96.333-220-97 0 0 0 0 0 0-60 0.667-112.167 16.333-156.5 47s-78.167 74-101.5 130c0 0 0 0 0 0-15.333 43.333-16.833 76.833-4.5 100.5s27.833 35.5 46.5 35.5c0 0 0 0 0 0 14-4 34.833-25 62.5-63s42.833-65.667 45.5-83c0 0 0 0 0 0-0.667-4.667-3.5-8.5-8.5-11.5s-9.833-4.5-14.5-4.5c0 0 0 0 0 0-14.667-0.667-28.667 7.333-42 24 0 0 0 0 0 0s-60 78-60 78c-26-32.667-23.5-68.833 7.5-108.5s67.167-61.167 108.5-64.5c0 0 0 0 0 0 26.667 1.333 47.167 10.833 61.5 28.5s19.167 36.167 14.5 55.5c0 0 0 0 0 0 8-0.667 16-0.333 24 1 0 0 0 0 0 0 0-28.667 5.833-55.5 17.5-80.5s33.5-39.5 65.5-43.5c0 0 0 0 0 0s4 15 4 15c-0.667 17.333-4.167 34.167-10.5 50.5s-9.833 33.167-10.5 50.5c0 0 0 0 0 0 0.667 28.667 9.667 55.667 27 81s37.333 46 60 62c0 0 0 0 0 0 16.667 11.333 34.667 20 54 26 0 0 0 0 0 0 10 4 19.833 8.333 29.5 13s18.167 10.667 25.5 18c0 0 0 0 0 0-0.667 12-3.667 22-9 30s-13.667 12-25 12c0 0 0 0 0 0-34-2-81 0.333-141 7s-93.333 31-100 73c0 0 0 0 0 0-0.667 6.667 0.833 12.667 4.5 18s13.833 8 30.5 8c0 0 0 0 0 0 36.667 0 84.833-4.5 144.5-13.5s103.833-23.833 132.5-44.5c0 0 0 0 0 0 20-21.333 27.833-68.333 23.5-141s-32.833-142.333-85.5-209zM515 287c0 0 0 0 0 0 10-2.667 20-4.667 30-6 0 0 0 0 0 0s30-6 30-6c-14.667-10.667-28.333-23.333-41-38 0 0 0 0 0 0-6 17.333-12.333 34-19 50z" />
<glyph unicode="&#xf1f5;" glyph-name="uniF1F5" d="M960 768c0 0-896 0-896 0s0-698 0-698c7.333-56 36.667-84.5 88-85.5s80.667 27.5 88 85.5c0 0 0 0 0 0s0 477 0 477c14 53.333 45.167 78.833 93.5 76.5s75.833-32.167 82.5-89.5c0 0 0 0 0 0s0-350 0-350c8-58 40-87 96-87s88 29 96 87c0 0 0 0 0 0s0 232 0 232c12 54.667 42.667 81.167 92 79.5s77.333-31.167 84-88.5c0 0 0 0 0 0s0-47 0-47c7.333-59.333 36.667-88.5 88-87.5s80.667 30.167 88 87.5c0 0 0 0 0 0s0 408 0 408z" />
<glyph unicode="&#xf209;" glyph-name="uniF209" d="M1024 506c0 0 0 0 0 0-2.667-104-38.667-190.5-108-259.5s-156-104.833-260-107.5c0 0 0 0 0 0-104 2.667-190.667 38.5-260 107.5s-105.333 155.5-108 259.5c0 0 0 0 0 0 2.667 104.667 38.667 191.667 108 261s156 105.333 260 108c0 0 0 0 0 0 104-2.667 190.667-38.667 260-108s105.333-156.333 108-261zM0 875c0 0 0-982 0-982s180 0 180 0c0 0 0 982 0 982s-180 0-180 0z" />
<glyph unicode="&#xf218;" glyph-name="uniF218" d="M945 123c0 0 0 0 0 0s-59 0-59 0c-0.667-14.667-6.167-28.5-16.5-41.5s-26.833-19.833-49.5-20.5c0 0 0 0 0 0-20 0-38 6.5-54 19.5s-31 30.5-45 52.5c0 0 0 0 0 0 45.333 34 81.5 77 108.5 129s40.833 111 41.5 177c0 0 0 0 0 0-4 118.667-44.833 213.333-122.5 284s-169.167 107-274.5 109c0 0 0 0 0 0-104-2-194.833-38.333-272.5-109s-118.5-165.333-122.5-284c0 0 0 0 0 0 6-137.333 59.5-242.167 160.5-314.5s213.5-93.5 337.5-63.5c0 0 0 0 0 0 18.667-34.667 42.833-64 72.5-88s68.833-36.333 117.5-37c0 0 0 0 0 0 79.333 5.333 130 31.833 152 79.5s30.667 83.5 26 107.5zM658 238c0 0 0 0 0 0-18.667 29.333-42 53.833-70 73.5s-65.667 29.833-113 30.5c0 0 0 0 0 0-30.667 0-57.667-4.333-81-13s-42.333-19.667-57-33c0 0 0 0 0 0s24-48 24-48c12.667 5.333 26 8 40 8 0 0 0 0 0 0 34.667-1.333 62.667-14.167 84-38.5s39.333-52.5 54-84.5c0 0 0 0 0 0-19.333-6-41-8.667-65-8 0 0 0 0 0 0-74.667 0-129.333 26.333-164 79s-52 131-52 235c0 104 17.333 182.5 52 235.5s89.667 79.5 165 79.5c75.333 0 130.333-26.5 165-79.5s51.667-131.5 51-235.5c0 0 0 0 0 0 0.667-84-10.333-151-33-201z" />
<glyph unicode="&#xf239;" glyph-name="uniF239" d="M749 369c0 0-34-73-34-73s-362 169-362 169c0 0 33 73 33 73s363-169 363-169zM760 386c0 0 51 62 51 62s-307 257-307 257c0 0-51-62-51-62s307-257 307-257zM827 463c0 0 64 48 64 48s-239 321-239 321c0 0-64-48-64-48s239-321 239-321zM693 196c0 0 16 78 16 78s-391 83-391 83c0 0-16-79-16-79s391-82 391-82zM772 16c0 0 1 0 1 0s-560 0-560 0c0 0 0 240 0 240s-80 0-80 0c0 0 0-320 0-320s719 0 719 0c0 0 0 320 0 320s-80 0-80 0c0 0 0-240 0-240zM693 97c0 0 0 79 0 79s-400 0-400 0c0 0 0-79 0-79s400 0 400 0z" />
<glyph unicode="&#xf246;" glyph-name="uniF246" d="M957 699c0 0 0 0 0 0s-135-638-135-638c-10.667-44.667-35.333-56.333-74-35 0 0 0 0 0 0s-206 152-206 152c0 0-100-96-100-96-5.333-5.333-11-10-17-14s-14-6-24-6c0 0 0 0 0 0s15 210 15 210c0 0 381 345 381 345 8 8 8.667 13.167 2 15.5s-15.667-0.167-27-7.5c0 0 0 0 0 0s-472-297-472-297c0 0-204 64-204 64-22 7.333-32.667 17.167-32 29.5s14.667 24.167 42 35.5c0 0 0 0 0 0s794 306 794 306c19.333 7.333 35 5.5 47-5.5s15.333-30.5 10-58.5z" />
<glyph unicode="&#xf24a;" glyph-name="uniF24A" d="M812-65c0 0 0 0 0 0-14.667-15.333-38.833-29.5-72.5-42.5s-74.5-19.833-122.5-20.5c0 0 0 0 0 0-118 5.333-197.167 39.333-237.5 102s-59.167 122.333-56.5 179c0 0 0 0 0 0s0 288 0 288c0 0-95 0-95 0-6 0-10.833 2-14.5 6s-5.5 8.667-5.5 14c0 0 0 0 0 0s0 136 0 136c0 7.333 2 13.833 6 19.5s9.333 9.833 16 12.5c0 0 0 0 0 0 61.333 24 104.333 58.333 129 103s38 88.333 40 131c0 0 0 0 0 0 2 22 12.667 33 32 33 0 0 0 0 0 0s142 0 142 0c5.333 0 10-2 14-6s6-8.667 6-14c0 0 0 0 0 0s0-230 0-230c0 0 166 0 166 0 5.333-0.667 10-2.833 14-6.5s6-8.167 6-13.5c0 0 0 0 0 0s0-164 0-164c0-5.333-2-9.833-6-13.5s-8.667-5.833-14-6.5c0 0 0 0 0 0s-167 0-167 0c0 0 0-266 0-266 0-35.333 11.667-60.333 35-75s57-13.667 101 3c0 0 0 0 0 0 10 4.667 18.5 6.167 25.5 4.5s11.833-6.833 14.5-15.5c0 0 0 0 0 0s44-129 44-129c2-4.667 3.333-9.667 4-15s-0.667-10-4-14z" />
<glyph unicode="&#xf25e;" glyph-name="uniF25E" horiz-adv-x="1152" d="M1090 661c0 0 0 0 0 0 4 12.667 3.5 23-1.5 31s-16.5 12-34.5 12c0 0 0 0 0 0s-117 0-117 0c-15.333 0-26.833-3.333-34.5-10s-13.5-14.333-17.5-23c0 0 0 0 0 0-0.667-4.667-14.167-33.167-40.5-85.5s-60.833-104.167-103.5-155.5c0 0 0 0 0 0-13.333-14-24.167-23.667-32.5-29s-15.833-8-22.5-8c0 0 0 0 0 0-4 0-8.167 2.667-12.5 8s-6.5 14-6.5 26c0 0 0 0 0 0s0 234 0 234c0 14.667-2.5 25.5-7.5 32.5s-13.5 10.5-25.5 10.5c0 0 0 0 0 0s-186 0-186 0c-9.333 0-16.5-2.833-21.5-8.5s-7.833-11.833-8.5-18.5c0 0 0 0 0 0 2-12 9.333-24.667 22-38s21-39 25-77c0 0 0 0 0 0s0-174 0-174c0-18-1.667-30-5-36s-9-9-17-9c0 0 0 0 0 0-22 2.667-52.167 34.167-90.5 94.5s-72.833 133.833-103.5 220.5c0 0 0 0 0 0-6 16-12.833 27.667-20.5 35s-18.833 11-33.5 11c0 0 0 0 0 0s-117 0-117 0c-16.667 0-27.667-3.333-33-10s-8-14.333-8-23c0 0 0 0 0 0-1.333-17.333 11.5-60.833 38.5-130.5s76.167-156.5 147.5-260.5c0 0 0 0 0 0 50-70.667 106.667-124.333 170-161s126.667-55 190-55c0 0 0 0 0 0 36 0 59.333 4 70 12s15.333 19.333 14 34c0 0 0 0 0 0-1.333 64.667-1 105.667 1 123s12 25 30 23c0 0 0 0 0 0 8 1.333 21-2.833 39-12.5s44-30.833 78-63.5c0 0 0 0 0 0 38-40 65.5-69.333 82.5-88s35.5-28 55.5-28c0 0 0 0 0 0s118 0 118 0c17.333 0 29.667 4.167 37 12.5s8.667 20.833 4 37.5c0 0 0 0 0 0-17.333 39.333-49.5 84-96.5 134s-75.167 79.667-84.5 89c0 0 0 0 0 0-8 10.667-11.667 19.667-11 27s4.333 15.667 11 25c0 0 0 0 0 0 6 7.333 30.667 44.167 74 110.5s71.667 120.167 85 161.5z" />
</font>
</defs>
</svg>
